<?xml version="1.0" standalone="no"?>
<!DOCTYPE svg PUBLIC "-//W3C//DTD SVG 20010904//EN"
 "http://www.w3.org/TR/2001/REC-SVG-20010904/DTD/svg10.dtd">
<svg version="1.0" xmlns="http://www.w3.org/2000/svg"
 width="2126.000000pt" height="1646.000000pt" viewBox="0 0 2126.000000 1646.000000"
 preserveAspectRatio="xMidYMid meet">

<g transform="translate(0.000000,1646.000000) scale(0.100000,-0.100000)"
fill="#000000" stroke="none">
<path d="M10720 16358 c-228 -24 -450 -50 -495 -58 -27 -6 -129 -19 -225 -30
-96 -11 -267 -31 -380 -45 -314 -38 -616 -73 -820 -95 -102 -11 -219 -24 -260
-30 -41 -5 -154 -16 -250 -25 -96 -9 -211 -20 -255 -26 -116 -14 -638 -59
-1210 -104 -443 -35 -1258 -80 -1645 -91 -129 -3 -257 -8 -285 -10 -27 -2
-387 -5 -800 -8 -910 -6 -1494 9 -2140 56 -195 14 -350 13 -449 -3 l-68 -11 6
-42 c3 -22 13 -117 21 -211 8 -93 21 -240 30 -325 8 -85 27 -281 41 -435 13
-154 34 -381 46 -505 12 -124 22 -270 23 -325 1 -55 7 -175 14 -267 8 -91 11
-174 8 -182 -4 -11 -19 -16 -44 -16 -43 -1 -193 -30 -268 -53 -460 -141 -820
-493 -974 -954 -79 -237 -96 -379 -106 -873 -23 -1160 -25 -1907 -7 -2045 24
-174 71 -347 132 -483 l29 -62 -41 -47 c-55 -64 -87 -116 -119 -194 -52 -126
-57 -187 -63 -674 -4 -247 -9 -576 -11 -730 -5 -271 -18 -1100 -31 -2015 -6
-486 -3 -530 45 -650 44 -108 89 -175 168 -254 107 -106 225 -171 371 -201 95
-20 1094 -33 1238 -16 132 15 307 59 424 106 59 24 98 34 106 29 93 -68 119
-83 209 -119 88 -36 168 -44 495 -50 303 -6 332 -5 422 14 87 18 169 50 234
91 19 11 25 10 50 -7 16 -11 45 -27 64 -36 143 -65 210 -75 543 -81 l278 -6
212 -216 c694 -710 1470 -1372 2346 -2003 281 -203 363 -260 651 -452 314
-210 504 -334 626 -408 38 -23 107 -67 154 -96 81 -51 603 -364 775 -465 175
-103 478 -274 710 -402 39 -22 108 -57 155 -80 82 -39 88 -40 160 -35 93 7
213 44 323 101 767 398 1679 914 2309 1307 1256 783 2244 1545 3110 2397 l186
184 284 -6 c293 -6 370 0 469 39 33 12 42 11 105 -11 38 -13 103 -28 144 -33
100 -12 744 -14 794 -2 26 7 59 5 105 -4 43 -9 178 -15 386 -19 374 -6 450 4
589 74 l78 40 62 -34 c33 -19 81 -40 106 -47 25 -7 50 -16 55 -20 26 -18 177
-28 480 -33 344 -6 396 -2 510 36 238 81 413 267 476 508 19 74 21 102 16 220
-3 74 -13 180 -22 235 -9 55 -25 159 -35 230 -10 72 -31 209 -45 305 -52 344
-65 437 -85 580 -11 80 -22 155 -25 168 -3 12 -15 86 -26 165 -30 212 -55 382
-84 572 -14 94 -34 231 -45 305 -10 74 -31 214 -45 310 -30 201 -58 389 -80
540 -27 191 -46 284 -71 346 l-24 61 46 69 c117 174 198 386 246 643 30 160
33 558 4 726 -47 283 -143 538 -277 739 l-41 61 23 15 c149 97 266 259 315
435 22 80 30 404 14 574 -59 640 -386 1111 -922 1331 l-93 37 1 44 c1 24 9
100 18 169 17 126 59 467 76 615 9 86 24 211 40 340 11 87 51 417 96 795 8 69
19 161 24 205 5 44 13 111 16 149 l7 69 -389 -7 c-1484 -24 -2027 -18 -2994
34 -458 25 -1094 72 -1475 110 -55 5 -174 17 -265 25 -91 9 -203 20 -250 25
-47 6 -168 19 -270 30 -200 22 -398 44 -525 60 -231 28 -327 40 -400 50 -134
18 -285 38 -375 49 -47 6 -114 16 -150 21 -36 6 -128 19 -205 30 -302 43 -759
111 -865 130 -137 24 -793 130 -865 139 -44 6 -125 15 -180 21 -55 5 -109 12
-120 14 -11 2 -58 -1 -105 -6z m4640 -728 c0 -5 -2 -10 -4 -10 -3 0 -8 5 -11
10 -3 6 -1 10 4 10 6 0 11 -4 11 -10z m-425 -50 c3 -5 1 -10 -4 -10 -6 0 -11
5 -11 10 0 6 2 10 4 10 3 0 8 -4 11 -10z m1910 0 c3 -5 2 -10 -4 -10 -5 0 -13
5 -16 10 -3 6 -2 10 4 10 5 0 13 -4 16 -10z m-340 -10 c3 -5 2 -10 -4 -10 -5
0 -13 5 -16 10 -3 6 -2 10 4 10 5 0 13 -4 16 -10z m2770 0 c3 -5 1 -10 -4 -10
-6 0 -11 5 -11 10 0 6 2 10 4 10 3 0 8 -4 11 -10z m815 0 c0 -5 -5 -10 -11
-10 -5 0 -7 5 -4 10 3 6 8 10 11 10 2 0 4 -4 4 -10z m-2604 -38 c-9 -8 -34 12
-29 24 4 12 8 11 18 -3 8 -10 12 -19 11 -21z m1960 11 c-7 -7 -26 7 -26 19 0
6 6 6 15 -2 9 -7 13 -15 11 -17z m404 -19 c0 -11 -4 -10 -19 3 -11 9 -18 20
-15 25 8 12 34 -11 34 -28z m-2010 16 c0 -5 -2 -10 -4 -10 -3 0 -8 5 -11 10
-3 6 -1 10 4 10 6 0 11 -4 11 -10z m65 1 c3 -5 1 -12 -5 -16 -5 -3 -10 1 -10
9 0 18 6 21 15 7z m795 -16 c-7 -9 -15 -13 -18 -10 -3 2 1 11 8 20 7 9 15 13
18 10 3 -2 -1 -11 -8 -20z m1352 3 c-7 -7 -12 -8 -12 -2 0 14 12 26 19 19 2
-3 -1 -11 -7 -17z m-802 2 c0 -5 -2 -10 -4 -10 -3 0 -8 5 -11 10 -3 6 -1 10 4
10 6 0 11 -4 11 -10z m460 -11 c0 -15 -21 -21 -35 -9 -22 19 -18 28 10 22 14
-2 25 -8 25 -13z m246 -6 c-10 -10 -19 5 -10 18 6 11 8 11 12 0 2 -7 1 -15 -2
-18z m-3256 13 c0 -3 -4 -8 -10 -11 -5 -3 -10 -1 -10 4 0 6 5 11 10 11 6 0 10
-2 10 -4z m-1100 -16 c0 -5 -4 -10 -10 -10 -5 0 -10 5 -10 10 0 6 5 10 10 10
6 0 10 -4 10 -10z m3425 0 c3 -6 -1 -7 -9 -4 -18 7 -21 14 -7 14 6 0 13 -4 16
-10z m575 -5 c0 -8 -4 -15 -10 -15 -5 0 -10 7 -10 15 0 8 5 15 10 15 6 0 10
-7 10 -15z m-1035 -5 c3 -5 1 -10 -4 -10 -6 0 -11 5 -11 10 0 6 2 10 4 10 3 0
8 -4 11 -10z m175 0 c0 -5 -2 -10 -4 -10 -3 0 -8 5 -11 10 -3 6 -1 10 4 10 6
0 11 -4 11 -10z m450 0 c0 -5 -5 -10 -11 -10 -5 0 -7 5 -4 10 3 6 8 10 11 10
2 0 4 -4 4 -10z m740 -12 c0 -13 -23 -5 -28 10 -2 7 2 10 12 6 9 -3 16 -11 16
-16z m90 1 c0 -5 -4 -9 -10 -9 -5 0 -10 7 -10 16 0 8 5 12 10 9 6 -3 10 -10
10 -16z m-1860 7 c0 -3 -4 -8 -10 -11 -5 -3 -10 -1 -10 4 0 6 5 11 10 11 6 0
10 -2 10 -4z m1350 -6 c0 -5 -4 -10 -10 -10 -5 0 -10 5 -10 10 0 6 5 10 10 10
6 0 10 -4 10 -10z m-1725 -9 c3 -5 1 -12 -4 -15 -5 -3 -11 1 -15 9 -6 16 9 21
19 6z m1525 5 c0 -11 -19 -15 -25 -6 -3 5 1 10 9 10 9 0 16 -2 16 -4z m-403
-28 c-3 -8 -6 -5 -6 6 -1 11 2 17 5 13 3 -3 4 -12 1 -19z m278 -6 c-6 -7 -34
11 -29 19 3 5 11 3 19 -4 7 -6 12 -13 10 -15z m-895 3 c0 -8 -4 -15 -10 -15
-5 0 -10 7 -10 15 0 8 5 15 10 15 6 0 10 -7 10 -15z m225 -5 c3 -5 1 -10 -4
-10 -6 0 -11 5 -11 10 0 6 2 10 4 10 3 0 8 -4 11 -10z m315 6 c0 -3 -4 -8 -10
-11 -5 -3 -10 -1 -10 4 0 6 5 11 10 11 6 0 10 -2 10 -4z m1020 -6 c0 -5 -2
-10 -4 -10 -3 0 -8 5 -11 10 -3 6 -1 10 4 10 6 0 11 -4 11 -10z m-1140 -40 c0
-15 -5 -12 -26 11 -19 22 -19 22 4 10 12 -6 22 -16 22 -21z m-690 11 c0 -6 -4
-13 -10 -16 -5 -3 -10 1 -10 9 0 9 5 16 10 16 6 0 10 -4 10 -9z m740 -7 c0 -8
-4 -12 -10 -9 -5 3 -10 10 -10 16 0 5 5 9 10 9 6 0 10 -7 10 -16z m225 6 c3
-5 1 -10 -4 -10 -6 0 -11 5 -11 10 0 6 2 10 4 10 3 0 8 -4 11 -10z m-1650 -20
c17 -19 17 -19 -8 -7 -14 6 -23 15 -21 19 7 11 9 10 29 -12z m185 -16 c-18
-21 -24 -10 -8 15 7 12 14 17 16 11 2 -6 -2 -17 -8 -26z m1919 10 c-15 -18
-22 -13 -13 10 3 9 10 13 16 10 5 -3 4 -12 -3 -20z m139 -9 c0 -19 -4 -35 -8
-35 -11 0 -20 39 -13 56 10 26 21 14 21 -21z m-2378 15 c0 -5 -2 -10 -4 -10
-3 0 -8 5 -11 10 -3 6 -1 10 4 10 6 0 11 -4 11 -10z m-797 -20 c-3 -12 -8 -19
-11 -16 -5 6 5 36 12 36 2 0 2 -9 -1 -20z m1792 9 c11 -17 -1 -21 -15 -4 -8 9
-8 15 -2 15 6 0 14 -5 17 -11z m695 3 c0 -5 -12 -19 -26 -33 l-27 -24 17 33
c15 29 36 43 36 24z m182 -34 c-7 -7 -12 -8 -12 -2 0 14 12 26 19 19 2 -3 -1
-11 -7 -17z m58 12 c0 -5 -2 -10 -4 -10 -3 0 -8 5 -11 10 -3 6 -1 10 4 10 6 0
11 -4 11 -10z m225 -29 c-6 -5 -25 10 -25 20 0 5 6 4 14 -3 8 -7 12 -15 11
-17z m-1055 3 c0 -8 -4 -12 -10 -9 -5 3 -10 10 -10 16 0 5 5 9 10 9 6 0 10 -7
10 -16z m250 -4 c0 -5 -2 -10 -4 -10 -3 0 -8 5 -11 10 -3 6 -1 10 4 10 6 0 11
-4 11 -10z m1270 -15 c14 -16 10 -18 -14 -9 -9 3 -16 10 -16 15 0 14 16 11 30
-6z m-4455 -5 c3 -5 1 -10 -4 -10 -6 0 -11 5 -11 10 0 6 2 10 4 10 3 0 8 -4
11 -10z m3396 -23 c-13 -13 -26 -3 -16 12 3 6 11 8 17 5 6 -4 6 -10 -1 -17z
m-1651 3 c0 -5 -2 -10 -4 -10 -3 0 -8 5 -11 10 -3 6 -1 10 4 10 6 0 11 -4 11
-10z m1320 0 c0 -5 -2 -10 -4 -10 -3 0 -8 5 -11 10 -3 6 -1 10 4 10 6 0 11 -4
11 -10z m885 -27 l18 -28 -26 24 c-23 21 -29 22 -44 10 -16 -13 -17 -12 -4 4
19 24 36 21 56 -10z m-1343 -21 c-4 -13 -7 -12 -12 4 -4 10 -5 23 -2 28 7 13
21 -16 14 -32z m1458 34 c0 -3 -4 -8 -10 -11 -5 -3 -10 -1 -10 4 0 6 5 11 10
11 6 0 10 -2 10 -4z m-3560 -10 c0 -3 -4 -8 -10 -11 -5 -3 -10 -1 -10 4 0 6 5
11 10 11 6 0 10 -2 10 -4z m1820 -6 c0 -5 -4 -10 -10 -10 -5 0 -10 5 -10 10 0
6 5 10 10 10 6 0 10 -4 10 -10z m706 -17 c-10 -10 -19 5 -10 18 6 11 8 11 12
0 2 -7 1 -15 -2 -18z m504 12 c11 -13 10 -14 -4 -9 -9 3 -16 10 -16 15 0 13 6
11 20 -6z m840 -15 c0 -5 -4 -10 -10 -10 -5 0 -10 5 -10 10 0 6 5 10 10 10 6
0 10 -4 10 -10z m-3447 -15 c-3 -9 -8 -14 -10 -11 -3 3 -2 9 2 15 9 16 15 13
8 -4z m1887 -6 c0 -6 -4 -7 -10 -4 -5 3 -10 11 -10 16 0 6 5 7 10 4 6 -3 10
-11 10 -16z m1497 15 c-3 -3 -12 -4 -19 -1 -8 3 -5 6 6 6 11 1 17 -2 13 -5z
m273 -4 c0 -5 -4 -10 -10 -10 -5 0 -10 5 -10 10 0 6 5 10 10 10 6 0 10 -4 10
-10z m-5773 -6 c-3 -3 -12 -4 -19 -1 -8 3 -5 6 6 6 11 1 17 -2 13 -5z m4153
-14 c0 -5 -2 -10 -4 -10 -3 0 -8 5 -11 10 -3 6 -1 10 4 10 6 0 11 -4 11 -10z
m-636 -16 c3 -8 2 -12 -4 -9 -6 3 -10 10 -10 16 0 14 7 11 14 -7z m1716 7 c0
-6 -4 -13 -10 -16 -5 -3 -10 1 -10 9 0 9 5 16 10 16 6 0 10 -4 10 -9z m315 -2
c11 -17 -1 -21 -15 -4 -8 9 -8 15 -2 15 6 0 14 -5 17 -11z m-3301 -25 c7 -19
2 -18 -19 6 -16 17 -16 20 -3 15 9 -4 19 -13 22 -21z m446 1 c-7 -9 -15 -13
-17 -11 -7 7 7 26 19 26 6 0 6 -6 -2 -15z m2605 5 c3 -5 1 -10 -4 -10 -6 0
-11 5 -11 10 0 6 2 10 4 10 3 0 8 -4 11 -10z m150 1 c3 -5 1 -12 -4 -15 -5 -3
-11 1 -15 9 -6 16 9 21 19 6z m249 -7 c4 -10 1 -14 -6 -12 -15 5 -23 28 -10
28 5 0 13 -7 16 -16z m-554 -9 c0 -8 -2 -15 -4 -15 -2 0 -6 7 -10 15 -3 8 -1
15 4 15 6 0 10 -7 10 -15z m504 -1 c3 -8 2 -12 -4 -9 -6 3 -10 10 -10 16 0 14
7 11 14 -7z m183 -3 c10 -16 9 -18 -8 -14 -10 3 -19 12 -19 19 0 20 13 17 27
-5z m-250 -13 c-3 -8 -6 -5 -6 6 -1 11 2 17 5 13 3 -3 4 -12 1 -19z m-3053 -4
c9 -24 7 -28 -9 -14 -17 14 -20 30 -6 30 5 0 12 -7 15 -16z m1276 6 c0 -5 -4
-10 -10 -10 -5 0 -10 5 -10 10 0 6 5 10 10 10 6 0 10 -4 10 -10z m951 -20 c5
0 9 -7 9 -15 0 -8 -3 -15 -7 -15 -11 0 -32 48 -24 55 3 4 7 0 9 -9 2 -9 8 -16
13 -16z m-401 16 c0 -3 -4 -8 -10 -11 -5 -3 -10 -1 -10 4 0 6 5 11 10 11 6 0
10 -2 10 -4z m1395 -7 c11 -17 -1 -21 -15 -4 -8 9 -8 15 -2 15 6 0 14 -5 17
-11z m-9005 -10 c0 -4 44 -10 98 -13 134 -7 302 -28 302 -38 0 -4 19 -8 43 -8
23 -1 71 -7 107 -15 36 -8 81 -14 101 -15 20 0 39 -3 43 -7 4 -5 26 -9 49 -10
67 -3 141 -14 152 -23 6 -4 51 -11 100 -15 50 -4 95 -11 100 -15 10 -7 145
-23 193 -22 12 0 22 -4 22 -9 0 -5 21 -9 48 -9 26 -1 76 -7 112 -15 36 -8 89
-14 118 -15 29 0 52 -5 52 -10 0 -6 21 -11 48 -11 72 0 156 -10 166 -20 6 -5
34 -9 62 -9 29 0 55 -4 58 -9 3 -5 54 -12 113 -16 60 -4 113 -10 118 -13 6 -4
19 -7 30 -8 136 -9 217 -19 221 -25 3 -5 32 -9 64 -9 32 0 62 -5 65 -10 4 -6
30 -10 58 -10 81 1 191 -11 203 -21 7 -5 36 -9 66 -8 30 1 61 -2 69 -7 8 -5
37 -7 65 -6 30 2 55 -1 59 -7 3 -6 37 -11 75 -11 38 0 71 -4 74 -8 3 -5 58
-12 123 -16 65 -4 138 -11 163 -16 25 -5 71 -9 102 -10 31 0 59 -4 62 -8 3 -5
67 -12 143 -16 76 -4 156 -11 178 -16 22 -5 75 -10 117 -10 42 0 79 -3 82 -8
2 -4 37 -9 78 -10 40 -1 91 -5 113 -8 22 -4 75 -7 117 -8 42 -1 80 -5 84 -9 4
-4 51 -7 104 -7 54 0 101 -5 107 -11 6 -6 55 -9 131 -7 66 2 118 0 116 -4 -7
-11 133 -22 421 -33 44 -2 115 -8 157 -15 43 -6 82 -9 86 -6 5 3 49 1 98 -4
49 -5 163 -12 254 -15 91 -4 183 -8 205 -10 22 -2 168 -6 324 -10 233 -6 285
-5 292 6 5 8 9 9 9 3 0 -17 160 -19 160 -2 0 8 5 6 11 -4 9 -16 48 -17 514
-17 420 0 505 2 505 14 0 10 9 9 40 -6 44 -22 126 -26 133 -6 3 7 6 5 6 -5 1
-20 26 -24 37 -7 5 8 10 6 16 -5 10 -17 -7 -207 -21 -241 -11 -26 -29 -108
-36 -165 -4 -25 -16 -89 -27 -144 -20 -91 -20 -99 -5 -108 9 -5 17 -14 17 -20
0 -9 -3 -9 -12 0 -7 7 -16 12 -20 12 -12 0 -9 -48 3 -52 8 -3 5 -11 -7 -22
-11 -12 -18 -34 -19 -60 0 -22 -4 -44 -8 -47 -5 -3 -13 -41 -18 -83 -5 -42
-14 -88 -19 -102 -6 -14 -8 -29 -5 -34 11 -18 -20 -30 -117 -44 -10 -1 -20 -5
-24 -8 -3 -4 -12 -4 -19 -2 -7 3 -53 -6 -103 -20 -50 -15 -93 -26 -95 -26 -2
0 5 39 14 88 10 48 18 97 19 110 0 12 4 30 10 40 8 14 19 74 46 232 15 93 16
100 5 100 -6 0 -11 5 -11 10 0 6 7 10 15 10 15 0 21 17 30 85 4 36 21 118 41
198 3 15 2 27 -2 28 -113 6 -294 7 -324 0 -26 -6 -42 -5 -49 2 -9 9 -16 8 -30
0 -11 -7 -23 -8 -32 -2 -21 13 -103 11 -117 -3 -10 -10 -15 -10 -20 -1 -8 13
-500 16 -564 3 -21 -4 -38 -5 -38 -1 0 11 -249 12 -271 0 -14 -7 -24 -7 -33 0
-7 6 -104 11 -246 11 -401 3 -683 10 -733 20 -26 6 -90 10 -140 10 -51 0 -97
4 -102 9 -6 5 -55 12 -110 15 -96 5 -127 8 -315 22 -47 3 -89 9 -95 14 -5 4
-43 8 -84 9 -40 1 -78 4 -83 7 -10 6 -65 11 -213 20 -38 3 -79 9 -90 14 -11 4
-67 11 -125 15 -58 3 -123 10 -145 15 -22 5 -68 10 -102 10 -34 0 -64 4 -67 9
-3 5 -67 12 -141 16 -74 4 -137 10 -139 14 -3 4 -34 8 -71 9 -36 2 -76 7 -88
11 -13 5 -75 12 -138 16 -63 4 -119 11 -124 16 -6 4 -20 8 -30 7 -44 -2 -221
15 -230 22 -5 4 -41 8 -79 9 -38 1 -74 5 -80 10 -6 5 -60 12 -121 16 -60 4
-115 12 -122 17 -6 5 -17 8 -25 7 -10 -2 -128 6 -230 15 -3 1 -10 4 -14 9 -4
4 -34 7 -66 7 -32 0 -66 4 -76 9 -15 8 -143 23 -322 38 -36 2 -69 8 -75 13 -5
4 -67 11 -138 15 -70 4 -130 11 -133 16 -3 5 -36 9 -73 9 -37 0 -71 3 -74 7
-4 3 -28 8 -55 9 -66 5 -359 37 -437 49 -22 3 -79 9 -127 12 -49 3 -88 9 -88
13 0 6 -231 24 -282 22 -10 0 -18 3 -18 9 0 5 -38 9 -84 9 -47 0 -87 4 -90 9
-4 5 -78 10 -167 10 -135 1 -225 -3 -511 -21 -16 -1 -28 -6 -28 -12 0 -5 -21
-6 -49 -3 -26 3 -52 2 -57 -2 -5 -5 -76 -14 -158 -21 -83 -7 -157 -16 -165
-20 -9 -5 -95 -16 -191 -25 -96 -9 -194 -21 -217 -27 -24 -6 -54 -8 -68 -6
-14 3 -28 2 -30 -2 -3 -5 -57 -11 -120 -15 -63 -4 -115 -10 -115 -14 0 -3 -21
-4 -46 -2 -26 2 -49 -1 -53 -6 -5 -8 -307 -41 -426 -47 -16 0 -36 -5 -42 -9
-7 -5 -37 -8 -65 -8 -78 1 -421 -29 -438 -38 -9 -5 -42 -6 -74 -4 -33 2 -62 0
-65 -5 -6 -9 -453 -45 -528 -43 -23 1 -44 -3 -48 -8 -3 -7 -32 -9 -72 -6 -36
3 -70 1 -77 -4 -6 -5 -157 -16 -336 -26 -179 -9 -331 -19 -339 -21 -8 -3 -100
-7 -205 -10 -105 -3 -195 -8 -201 -12 -5 -3 -57 -8 -115 -9 -58 -2 -157 -6
-220 -9 -63 -3 -171 -7 -240 -8 -69 -1 -132 -5 -140 -9 -8 -4 -73 -6 -145 -5
-71 1 -348 -1 -615 -5 -267 -4 -719 -7 -1005 -6 -969 3 -961 3 -968 -14 -2 -7
2 -46 9 -87 8 -41 18 -106 24 -145 5 -38 16 -106 24 -150 7 -44 23 -141 35
-215 11 -74 28 -173 36 -220 26 -146 28 -170 18 -170 -6 0 -16 7 -23 15 -7 8
-16 15 -21 15 -4 0 -27 13 -51 29 -37 24 -168 87 -218 104 -19 6 -36 70 -51
192 -6 50 -15 99 -20 110 -4 11 -15 80 -24 154 -9 74 -18 138 -21 142 -2 5
-13 72 -24 151 -11 79 -24 163 -29 188 -5 25 -12 72 -15 105 -4 33 -9 73 -12
89 l-6 29 583 -9 c800 -12 1333 -9 2019 14 69 2 193 5 275 6 83 2 157 6 165 9
8 3 96 8 195 11 308 10 859 37 875 43 8 3 54 5 101 4 53 -2 89 2 93 8 4 7 37
9 86 6 44 -2 80 -1 80 3 0 5 136 16 302 26 167 10 309 22 318 27 8 4 132 15
275 24 143 9 267 19 275 22 8 3 38 6 65 7 28 1 55 4 60 8 6 3 92 11 193 19
100 7 182 16 182 20 0 4 24 7 53 8 47 0 285 25 297 31 3 1 26 1 51 0 26 -1 50
4 54 10 4 7 22 9 51 4 24 -3 50 -2 57 3 6 6 80 16 162 22 83 7 159 16 170 21
19 8 338 43 380 42 10 -1 24 3 30 7 5 5 53 12 105 16 52 4 99 10 105 13 5 3
26 5 46 3 20 -1 40 3 44 9 4 6 26 10 49 9 22 -1 48 1 56 4 15 6 173 24 265 30
28 2 57 7 66 11 9 4 60 5 113 3 53 -2 96 0 96 5 0 5 54 8 120 7 66 -1 120 -5
120 -10z m7160 1 c0 -5 -7 -10 -15 -10 -8 0 -15 5 -15 10 0 6 7 10 15 10 8 0
15 -4 15 -10z m157 -12 c-3 -8 -6 -5 -6 6 -1 11 2 17 5 13 3 -3 4 -12 1 -19z
m-777 2 c0 -5 -4 -10 -10 -10 -5 0 -10 5 -10 10 0 6 5 10 10 10 6 0 10 -4 10
-10z m1104 -6 c8 -21 8 -24 -3 -24 -5 0 -11 9 -14 20 -6 24 8 27 17 4z m1032
-11 c-10 -10 -19 5 -10 18 6 11 8 11 12 0 2 -7 1 -15 -2 -18z m-2316 7 c0 -5
-4 -10 -10 -10 -5 0 -10 5 -10 10 0 6 5 10 10 10 6 0 10 -4 10 -10z m1770 -10
c0 -5 -5 -10 -11 -10 -5 0 -7 5 -4 10 3 6 8 10 11 10 2 0 4 -4 4 -10z m-1554
-16 c17 -14 17 -15 1 -10 -10 3 -23 6 -28 6 -5 0 -9 5 -9 10 0 14 13 12 36 -6z
m134 1 c0 -8 -4 -15 -10 -15 -5 0 -10 7 -10 15 0 8 5 15 10 15 6 0 10 -7 10
-15z m1875 5 c3 -5 1 -10 -4 -10 -6 0 -11 5 -11 10 0 6 2 10 4 10 3 0 8 -4 11
-10z m256 -13 c-13 -13 -26 -3 -16 12 3 6 11 8 17 5 6 -4 6 -10 -1 -17z
m-4291 -3 c0 -2 -7 -4 -15 -4 -8 0 -15 4 -15 10 0 5 7 7 15 4 8 -4 15 -8 15
-10z m1741 -7 c-10 -9 -11 -8 -5 6 3 10 9 15 12 12 3 -3 0 -11 -7 -18z m2170
0 c-10 -9 -11 -8 -5 6 3 10 9 15 12 12 3 -3 0 -11 -7 -18z m-1371 3 c0 -5 -5
-10 -11 -10 -5 0 -7 5 -4 10 3 6 8 10 11 10 2 0 4 -4 4 -10z m1190 -4 c0 -3
-4 -8 -10 -11 -5 -3 -10 -1 -10 4 0 6 5 11 10 11 6 0 10 -2 10 -4z m-257 -26
c-3 -11 -7 -20 -9 -20 -2 0 -4 9 -4 20 0 11 4 20 9 20 5 0 7 -9 4 -20z m-513
-4 c0 -3 -4 -8 -10 -11 -5 -3 -10 -1 -10 4 0 6 5 11 10 11 6 0 10 -2 10 -4z
m920 -16 c0 -5 -4 -10 -10 -10 -5 0 -10 5 -10 10 0 6 5 10 10 10 6 0 10 -4 10
-10z m525 0 c3 -5 1 -10 -4 -10 -6 0 -11 5 -11 10 0 6 2 10 4 10 3 0 8 -4 11
-10z m-595 -10 c0 -5 -4 -10 -10 -10 -5 0 -10 5 -10 10 0 6 5 10 10 10 6 0 10
-4 10 -10z m737 -6 c-3 -3 -12 -4 -19 -1 -8 3 -5 6 6 6 11 1 17 -2 13 -5z
m-1867 -14 c0 -5 -2 -10 -4 -10 -3 0 -8 5 -11 10 -3 6 -1 10 4 10 6 0 11 -4
11 -10z m525 0 c3 -5 1 -10 -4 -10 -6 0 -11 5 -11 10 0 6 2 10 4 10 3 0 8 -4
11 -10z m-299 -27 c-10 -10 -19 5 -10 18 6 11 8 11 12 0 2 -7 1 -15 -2 -18z
m620 -1 c-17 -16 -18 -16 -5 5 7 12 15 20 18 17 3 -2 -3 -12 -13 -22z m310 1
c-10 -10 -19 5 -10 18 6 11 8 11 12 0 2 -7 1 -15 -2 -18z m-3365 -10 c-12 -20
-14 -14 -5 12 4 9 9 14 11 11 3 -2 0 -13 -6 -23z m809 12 c0 -9 -6 -12 -15 -9
-8 4 -15 10 -15 15 0 5 7 9 15 9 8 0 15 -7 15 -15z m3140 -7 c0 -6 -6 -5 -15
2 -8 7 -15 14 -15 16 0 2 7 1 15 -2 8 -4 15 -11 15 -16z m-766 -9 c-3 -5 -10
-7 -15 -3 -5 3 -7 10 -3 15 3 5 10 7 15 3 5 -3 7 -10 3 -15z m-957 -11 c-3 -8
-6 -5 -6 6 -1 11 2 17 5 13 3 -3 4 -12 1 -19z m1778 -8 c3 -5 -1 -10 -9 -10
-9 0 -16 5 -16 10 0 6 4 10 9 10 6 0 13 -4 16 -10z m-4115 -20 c0 -5 -5 -10
-11 -10 -5 0 -7 5 -4 10 3 6 8 10 11 10 2 0 4 -4 4 -10z m1220 0 c0 -5 -4 -10
-10 -10 -5 0 -10 5 -10 10 0 6 5 10 10 10 6 0 10 -4 10 -10z m1973 -5 c-3 -9
-8 -14 -10 -11 -3 3 -2 9 2 15 9 16 15 13 8 -4z m757 -5 c6 8 10 11 10 5 0 -5
-4 -17 -10 -25 -7 -12 -12 -12 -29 4 -12 11 -21 24 -21 29 0 6 9 2 21 -9 17
-16 22 -16 29 -4z m-2540 0 c0 -5 -2 -10 -4 -10 -3 0 -8 5 -11 10 -3 6 -1 10
4 10 6 0 11 -4 11 -10z m2150 0 c0 -5 -5 -10 -11 -10 -5 0 -7 5 -4 10 3 6 8
10 11 10 2 0 4 -4 4 -10z m166 -37 c-7 -7 -26 7 -26 19 0 6 6 6 15 -2 9 -7 13
-15 11 -17z m-1376 8 c0 -12 -20 -25 -27 -18 -7 7 6 27 18 27 5 0 9 -4 9 -9z
m720 -21 c0 -5 -5 -10 -11 -10 -5 0 -7 5 -4 10 3 6 8 10 11 10 2 0 4 -4 4 -10z
m-90 -16 c0 -8 -4 -12 -10 -9 -5 3 -10 10 -10 16 0 5 5 9 10 9 6 0 10 -7 10
-16z m910 7 c0 -5 -7 -14 -15 -21 -16 -14 -18 -10 -9 14 6 17 24 22 24 7z
m-1145 -22 c-10 -15 -25 -10 -19 6 4 8 10 12 15 9 5 -3 7 -10 4 -15z m415 11
c0 -5 -4 -10 -10 -10 -5 0 -10 5 -10 10 0 6 5 10 10 10 6 0 10 -4 10 -10z
m490 -25 c0 -5 -5 -3 -10 5 -5 8 -10 20 -10 25 0 6 5 3 10 -5 5 -8 10 -19 10
-25z m-2809 8 c13 -17 13 -17 -6 -3 -11 8 -22 16 -24 17 -2 2 0 3 6 3 6 0 17
-8 24 -17z m2959 -8 c0 -8 -7 -15 -16 -15 -14 0 -14 3 -4 15 7 8 14 15 16 15
2 0 4 -7 4 -15z m-4017 -10 c-3 -9 -8 -14 -10 -11 -3 3 -2 9 2 15 9 16 15 13
8 -4z m2342 -5 c3 -5 2 -10 -4 -10 -5 0 -13 5 -16 10 -3 6 -2 10 4 10 5 0 13
-4 16 -10z m225 6 c0 -3 -4 -8 -10 -11 -5 -3 -10 -1 -10 4 0 6 5 11 10 11 6 0
10 -2 10 -4z m420 0 c0 -3 -4 -8 -10 -11 -5 -3 -10 -1 -10 4 0 6 5 11 10 11 6
0 10 -2 10 -4z m1243 -11 c-3 -9 -8 -14 -10 -11 -3 3 -2 9 2 15 9 16 15 13 8
-4z m-1583 1 c0 -2 -8 -10 -17 -17 -16 -13 -17 -12 -4 4 13 16 21 21 21 13z
m200 -6 c0 -5 -4 -10 -10 -10 -5 0 -10 5 -10 10 0 6 5 10 10 10 6 0 10 -4 10
-10z m930 0 c0 -5 -4 -10 -9 -10 -6 0 -13 5 -16 10 -3 6 1 10 9 10 9 0 16 -4
16 -10z m-640 -32 c0 -6 -7 -5 -15 2 -8 7 -15 17 -15 22 0 6 7 5 15 -2 8 -7
15 -17 15 -22z m-94 -5 c-6 -6 -36 9 -36 18 0 5 9 4 20 -3 10 -7 18 -14 16
-15z m-1382 1 c3 -8 2 -12 -4 -9 -6 3 -10 10 -10 16 0 14 7 11 14 -7z m1556 6
c0 -5 -4 -10 -9 -10 -6 0 -13 5 -16 10 -3 6 1 10 9 10 9 0 16 -4 16 -10z
m-2830 -10 c0 -5 -4 -10 -10 -10 -5 0 -10 5 -10 10 0 6 5 10 10 10 6 0 10 -4
10 -10z m3336 -17 c-10 -10 -19 5 -10 18 6 11 8 11 12 0 2 -7 1 -15 -2 -18z
m364 12 c0 -8 -4 -15 -10 -15 -5 0 -7 7 -4 15 4 8 8 15 10 15 2 0 4 -7 4 -15z
m-532 -30 c-3 -3 -9 2 -12 12 -6 14 -5 15 5 6 7 -7 10 -15 7 -18z m-932 -22
c-10 -10 -19 5 -10 18 6 11 8 11 12 0 2 -7 1 -15 -2 -18z m74 6 c0 -6 -4 -7
-10 -4 -5 3 -10 11 -10 16 0 6 5 7 10 4 6 -3 10 -11 10 -16z m1100 11 c0 -5
-2 -10 -4 -10 -3 0 -8 5 -11 10 -3 6 -1 10 4 10 6 0 11 -4 11 -10z m480 6 c0
-3 -4 -8 -10 -11 -5 -3 -10 -1 -10 4 0 6 5 11 10 11 6 0 10 -2 10 -4z m33 -21
c-3 -9 -8 -14 -10 -11 -3 3 -2 9 2 15 9 16 15 13 8 -4z m-2008 -5 c3 -5 1 -10
-4 -10 -6 0 -11 5 -11 10 0 6 2 10 4 10 3 0 8 -4 11 -10z m785 6 c0 -3 -4 -8
-10 -11 -5 -3 -10 -1 -10 4 0 6 5 11 10 11 6 0 10 -2 10 -4z m100 -6 c0 -5 -2
-10 -4 -10 -3 0 -8 5 -11 10 -3 6 -1 10 4 10 6 0 11 -4 11 -10z m-1100 -10 c0
-5 -2 -10 -4 -10 -3 0 -8 5 -11 10 -3 6 -1 10 4 10 6 0 11 -4 11 -10z m760 0
c0 -5 -5 -10 -11 -10 -5 0 -7 5 -4 10 3 6 8 10 11 10 2 0 4 -4 4 -10z m372
-12 c-7 -7 -12 -8 -12 -2 0 14 12 26 19 19 2 -3 -1 -11 -7 -17z m472 6 c3 -8
2 -12 -4 -9 -6 3 -10 10 -10 16 0 14 7 11 14 -7z m-969 -14 c3 -5 1 -10 -4
-10 -6 0 -11 5 -11 10 0 6 2 10 4 10 3 0 8 -4 11 -10z m1285 0 c0 -5 -2 -10
-4 -10 -3 0 -8 5 -11 10 -3 6 -1 10 4 10 6 0 11 -4 11 -10z m189 -16 c3 -16 1
-17 -13 -5 -19 16 -21 34 -3 29 6 -3 14 -13 16 -24z m-2647 -6 c-7 -7 -12 -8
-12 -2 0 14 12 26 19 19 2 -3 -1 -11 -7 -17z m2528 -3 c7 -9 8 -15 2 -15 -5 0
-12 7 -16 15 -3 8 -4 15 -2 15 2 0 9 -7 16 -15z m-960 -41 c0 -3 -7 -1 -15 6
-8 7 -15 17 -15 22 0 5 7 3 15 -6 8 -8 15 -18 15 -22z m735 26 c3 -5 2 -10 -4
-10 -5 0 -13 5 -16 10 -3 6 -2 10 4 10 5 0 13 -4 16 -10z m281 -15 c-3 -9 -11
-13 -16 -10 -8 5 -7 11 1 21 14 18 24 11 15 -11z m-1876 5 c0 -5 -2 -10 -4
-10 -3 0 -8 5 -11 10 -3 6 -1 10 4 10 6 0 11 -4 11 -10z m2060 0 c0 -5 -4 -10
-10 -10 -5 0 -10 5 -10 10 0 6 5 10 10 10 6 0 10 -4 10 -10z m-1940 -31 c0 -6
-4 -7 -10 -4 -5 3 -10 11 -10 16 0 6 5 7 10 4 6 -3 10 -11 10 -16z m110 -10
c0 -6 -4 -7 -10 -4 -5 3 -10 11 -10 16 0 6 5 7 10 4 6 -3 10 -11 10 -16z
m1580 11 c0 -5 -7 -10 -16 -10 -8 0 -12 5 -9 10 3 6 10 10 16 10 5 0 9 -4 9
-10z m275 1 c3 -5 1 -12 -5 -16 -5 -3 -10 1 -10 9 0 18 6 21 15 7z m-1425 -5
c0 -3 -4 -8 -10 -11 -5 -3 -10 -1 -10 4 0 6 5 11 10 11 6 0 10 -2 10 -4z
m-7729 -19 c-1 -12 -15 -9 -19 4 -3 6 1 10 8 8 6 -3 11 -8 11 -12z m8574 3 c3
-5 1 -10 -4 -10 -6 0 -11 5 -11 10 0 6 2 10 4 10 3 0 8 -4 11 -10z m470 1 c3
-5 1 -12 -5 -16 -5 -3 -10 1 -10 9 0 18 6 21 15 7z m-353 -33 c-7 -7 -12 -8
-12 -2 0 14 12 26 19 19 2 -3 -1 -11 -7 -17z m438 1 c0 -6 -4 -7 -10 -4 -5 3
-10 11 -10 16 0 6 5 7 10 4 6 -3 10 -11 10 -16z m-200 -24 c0 -5 -5 -3 -10 5
-5 8 -10 20 -10 25 0 6 5 3 10 -5 5 -8 10 -19 10 -25z m-924 -2 c-6 -6 -36 9
-36 18 0 5 9 4 20 -3 10 -7 18 -14 16 -15z m524 8 c-5 -11 -15 -23 -21 -27 -6
-3 -3 5 6 20 20 30 30 35 15 7z m-840 -1 c0 -5 -2 -10 -4 -10 -3 0 -8 5 -11
10 -3 6 -1 10 4 10 6 0 11 -4 11 -10z m950 6 c0 -3 -4 -8 -10 -11 -5 -3 -10
-1 -10 4 0 6 5 11 10 11 6 0 10 -2 10 -4z m-526 -22 c3 -8 2 -12 -4 -9 -6 3
-10 10 -10 16 0 14 7 11 14 -7z m-8104 -26 c7 -18 14 -51 17 -73 2 -21 8 -46
12 -53 5 -8 3 -27 -3 -43 -16 -43 3 -55 37 -23 31 29 37 14 6 -17 -11 -11 -19
-25 -17 -30 4 -13 77 42 78 59 0 9 7 11 23 7 43 -13 42 -24 -6 -72 -45 -45
-56 -62 -39 -64 35 -5 100 -9 167 -11 54 -2 84 -8 91 -17 7 -10 21 -12 42 -8
25 5 34 2 42 -13 9 -17 8 -20 -9 -20 -11 0 -26 -6 -33 -13 -8 -8 -23 -11 -38
-6 -28 7 -120 0 -135 -11 -5 -4 -29 -6 -53 -4 -34 2 -44 -2 -53 -18 -9 -16 -7
-24 10 -39 23 -22 28 -59 8 -59 -7 0 -29 11 -50 25 -49 34 -78 22 -76 -33 0
-20 -5 -62 -11 -92 -6 -30 -12 -68 -14 -85 -1 -16 -5 -36 -10 -43 -4 -7 -5
-19 -2 -27 3 -8 2 -15 -2 -15 -24 1 -33 28 -49 138 -13 93 -20 122 -31 122
-13 0 -12 3 1 18 25 28 21 44 -10 40 -21 -2 -27 -8 -25 -21 2 -11 -2 -17 -10
-16 -7 1 -26 -3 -41 -9 -34 -14 -57 -15 -57 -3 0 5 16 25 35 46 37 41 37 55 0
55 -12 0 -25 6 -28 14 -5 14 -52 22 -176 31 -35 3 -69 9 -76 15 -6 5 -15 7
-18 4 -3 -4 -14 -4 -23 0 -31 12 4 36 52 36 28 0 44 4 44 13 0 9 3 8 9 -2 12
-18 87 -5 95 16 6 14 8 14 20 -3 12 -15 18 -16 39 -7 14 7 35 9 48 6 18 -5 21
-3 16 12 -4 9 -2 23 3 31 8 9 7 20 -7 41 -9 15 -22 31 -28 35 -27 20 30 5 65
-17 25 -16 41 -21 46 -14 3 6 15 8 26 6 14 -4 18 -1 14 8 -3 8 2 31 10 51 9
20 13 45 11 55 -6 21 11 98 26 117 15 19 24 14 37 -20z m6920 22 c0 -5 -2 -10
-4 -10 -3 0 -8 5 -11 10 -3 6 -1 10 4 10 6 0 11 -4 11 -10z m2206 -27 c-8 -8
-36 5 -36 17 0 7 6 7 21 0 11 -7 18 -14 15 -17z m-1745 0 c13 -16 12 -17 -3
-4 -17 13 -22 21 -14 21 2 0 10 -8 17 -17z m343 -8 c3 -8 1 -15 -3 -15 -5 0
-11 7 -15 15 -3 8 -1 15 3 15 5 0 11 -7 15 -15z m996 -5 c0 -5 -4 -10 -10 -10
-5 0 -10 5 -10 10 0 6 5 10 10 10 6 0 10 -4 10 -10z m-853 -6 c-3 -3 -12 -4
-19 -1 -8 3 -5 6 6 6 11 1 17 -2 13 -5z m838 -24 c3 -5 2 -10 -4 -10 -5 0 -13
5 -16 10 -3 6 -2 10 4 10 5 0 13 -4 16 -10z m215 -14 c14 -18 14 -18 -7 -6
-12 8 -19 18 -16 23 3 4 6 7 7 5 1 -2 8 -12 16 -22z m-140 -16 c0 -5 -5 -10
-11 -10 -5 0 -7 5 -4 10 3 6 8 10 11 10 2 0 4 -4 4 -10z m132 -52 c-15 -15
-24 -6 -16 16 5 12 10 14 17 7 8 -8 8 -14 -1 -23z m198 -8 c0 -5 -4 -10 -10
-10 -5 0 -10 5 -10 10 0 6 5 10 10 10 6 0 10 -4 10 -10z m-630 -44 c0 -3 -4
-8 -10 -11 -5 -3 -10 -1 -10 4 0 6 5 11 10 11 6 0 10 -2 10 -4z m32 -38 c-7
-7 -12 -8 -12 -2 0 14 12 26 19 19 2 -3 -1 -11 -7 -17z m-4072 2 c0 -5 -4 -10
-10 -10 -5 0 -10 5 -10 10 0 6 5 10 10 10 6 0 10 -4 10 -10z m4560 -50 c0 -5
-5 -10 -11 -10 -5 0 -7 5 -4 10 3 6 8 10 11 10 2 0 4 -4 4 -10z m-450 -40 c0
-5 -2 -10 -4 -10 -3 0 -8 5 -11 10 -3 6 -1 10 4 10 6 0 11 -4 11 -10z m100
-15 c-7 -9 -15 -13 -17 -11 -7 7 7 26 19 26 6 0 6 -6 -2 -15z m-8050 -65 c0
-5 -9 -6 -20 -3 -20 5 -25 15 -13 26 7 8 33 -11 33 -23z m5380 10 c0 -5 -5
-10 -11 -10 -5 0 -7 5 -4 10 3 6 8 10 11 10 2 0 4 -4 4 -10z m2070 0 c0 -5 -7
-10 -16 -10 -8 0 -12 5 -9 10 3 6 10 10 16 10 5 0 9 -4 9 -10z m743 -15 c-3
-9 -8 -14 -10 -11 -3 3 -2 9 2 15 9 16 15 13 8 -4z m57 -5 c0 -5 -4 -10 -10
-10 -5 0 -10 5 -10 10 0 6 5 10 10 10 6 0 10 -4 10 -10z m145 -19 c3 -5 1 -12
-5 -16 -5 -3 -10 1 -10 9 0 18 6 21 15 7z m-1540 -11 c3 -5 1 -10 -4 -10 -6 0
-11 5 -11 10 0 6 2 10 4 10 3 0 8 -4 11 -10z m-465 -10 c0 -5 -5 -10 -11 -10
-5 0 -7 5 -4 10 3 6 8 10 11 10 2 0 4 -4 4 -10z m1735 -10 c-3 -5 -13 -10 -21
-10 -8 0 -12 5 -9 10 3 6 13 10 21 10 8 0 12 -4 9 -10z m245 -6 c0 -8 -5 -12
-10 -9 -6 4 -8 11 -5 16 9 14 15 11 15 -7z m-1545 -4 c3 -5 1 -10 -4 -10 -6 0
-11 5 -11 10 0 6 2 10 4 10 3 0 8 -4 11 -10z m425 0 c0 -5 -4 -10 -10 -10 -5
0 -10 5 -10 10 0 6 5 10 10 10 6 0 10 -4 10 -10z m-2928 -32 c-7 -7 -12 -8
-12 -2 0 14 12 26 19 19 2 -3 -1 -11 -7 -17z m2713 3 c-3 -6 -11 -8 -17 -5 -6
4 -5 9 3 15 16 10 23 4 14 -10z m895 -3 c0 -6 -6 -5 -15 2 -8 7 -15 14 -15 16
0 2 7 1 15 -2 8 -4 15 -11 15 -16z m-820 2 c0 -5 -4 -10 -10 -10 -5 0 -10 5
-10 10 0 6 5 10 10 10 6 0 10 -4 10 -10z m-1220 -10 c0 -5 -2 -10 -4 -10 -3 0
-8 5 -11 10 -3 6 -1 10 4 10 6 0 11 -4 11 -10z m1970 0 c0 -5 -4 -10 -10 -10
-5 0 -10 5 -10 10 0 6 5 10 10 10 6 0 10 -4 10 -10z m160 0 c0 -5 -4 -10 -9
-10 -6 0 -13 5 -16 10 -3 6 1 10 9 10 9 0 16 -4 16 -10z m240 6 c0 -3 -4 -8
-10 -11 -5 -3 -10 -1 -10 4 0 6 5 11 10 11 6 0 10 -2 10 -4z m-2655 -16 c3 -5
1 -10 -4 -10 -6 0 -11 5 -11 10 0 6 2 10 4 10 3 0 8 -4 11 -10z m-6139 -27
c-10 -10 -19 5 -10 18 6 11 8 11 12 0 2 -7 1 -15 -2 -18z m7948 -26 c-3 -9
-11 -17 -17 -17 -8 0 -8 3 0 11 6 6 9 19 6 28 -4 12 -3 13 6 5 6 -6 9 -18 5
-27z m-114 3 c0 -5 -4 -10 -10 -10 -5 0 -10 5 -10 10 0 6 5 10 10 10 6 0 10
-4 10 -10z m960 -6 c0 -8 -5 -12 -10 -9 -6 4 -8 11 -5 16 9 14 15 11 15 -7z
m-1170 -15 c0 -5 -4 -9 -10 -9 -5 0 -10 7 -10 16 0 8 5 12 10 9 6 -3 10 -10
10 -16z m1086 -26 c-7 -7 -26 7 -26 19 0 6 6 6 15 -2 9 -7 13 -15 11 -17z
m224 13 c0 -8 -7 -16 -15 -20 -12 -4 -13 -2 -2 14 14 24 17 25 17 6z m-1705
-26 c3 -5 1 -10 -4 -10 -6 0 -11 5 -11 10 0 6 2 10 4 10 3 0 8 -4 11 -10z
m261 -28 c-18 -16 -19 -16 -12 1 3 10 6 24 6 30 0 8 4 7 12 -1 10 -9 8 -16 -6
-30z m-916 7 c0 -6 -4 -7 -10 -4 -5 3 -10 11 -10 16 0 6 5 7 10 4 6 -3 10 -11
10 -16z m113 6 c-3 -9 -8 -14 -10 -11 -3 3 -2 9 2 15 9 16 15 13 8 -4z m1807
5 c0 -5 -2 -10 -4 -10 -3 0 -8 5 -11 10 -3 6 -1 10 4 10 6 0 11 -4 11 -10z
m380 -21 c0 -14 -17 -10 -23 5 -4 10 -1 13 9 9 7 -3 14 -9 14 -14z m-174 -21
c-9 -12 -16 -19 -16 -15 0 11 24 47 28 42 2 -2 -3 -14 -12 -27z m-1546 13 c0
-5 -7 -14 -15 -21 -16 -14 -18 -10 -9 14 6 17 24 22 24 7z m1680 -33 c0 -6 -6
-5 -15 2 -8 7 -15 14 -15 16 0 2 7 1 15 -2 8 -4 15 -11 15 -16z m-1005 -18 c3
-5 1 -10 -4 -10 -6 0 -11 5 -11 10 0 6 2 10 4 10 3 0 8 -4 11 -10z m-35 -40
c0 -5 -4 -10 -10 -10 -5 0 -10 5 -10 10 0 6 5 10 10 10 6 0 10 -4 10 -10z
m-2700 -4 c0 -3 -4 -8 -10 -11 -5 -3 -10 -1 -10 4 0 6 5 11 10 11 6 0 10 -2
10 -4z m2290 -22 c0 -8 -5 -12 -10 -9 -6 4 -8 11 -5 16 9 14 15 11 15 -7z
m996 -11 c-10 -10 -19 5 -10 18 6 11 8 11 12 0 2 -7 1 -15 -2 -18z m-816 -14
c0 -5 -4 -9 -10 -9 -5 0 -10 7 -10 16 0 8 5 12 10 9 6 -3 10 -10 10 -16z m195
11 c3 -5 1 -10 -4 -10 -6 0 -11 5 -11 10 0 6 2 10 4 10 3 0 8 -4 11 -10z m915
0 c0 -5 -2 -10 -4 -10 -3 0 -8 5 -11 10 -3 6 -1 10 4 10 6 0 11 -4 11 -10z
m40 -20 c0 -5 -5 -10 -11 -10 -5 0 -7 5 -4 10 3 6 8 10 11 10 2 0 4 -4 4 -10z
m262 -22 c-7 -7 -12 -8 -12 -2 0 14 12 26 19 19 2 -3 -1 -11 -7 -17z m-232
-48 c0 -11 -2 -20 -4 -20 -2 0 -6 9 -9 20 -3 11 -1 20 4 20 5 0 9 -9 9 -20z
m-3440 0 c0 -5 -4 -10 -9 -10 -6 0 -13 5 -16 10 -3 6 1 10 9 10 9 0 16 -4 16
-10z m2450 -28 c0 -15 -2 -15 -10 -2 -13 20 -13 33 0 25 6 -3 10 -14 10 -23z
m1177 6 c-3 -8 -6 -5 -6 6 -1 11 2 17 5 13 3 -3 4 -12 1 -19z m-4496 -53 c48
-30 90 -55 93 -55 7 0 129 -80 153 -100 9 -8 1 -31 -33 -97 -96 -183 -171
-275 -287 -350 -61 -40 -77 -46 -165 -57 -53 -7 -101 -10 -107 -6 -5 4 -32 11
-60 15 -29 4 -90 28 -150 60 -105 55 -159 83 -187 97 -28 13 -78 9 -106 -8
-32 -18 -82 -85 -82 -108 0 -9 -4 -16 -8 -16 -5 0 -17 -18 -27 -40 -10 -22
-20 -40 -23 -40 -5 0 -160 95 -223 136 -19 13 -38 24 -42 24 -8 0 -13 3 -59
42 l-27 23 42 85 c60 120 111 195 187 271 129 130 267 166 454 119 43 -11 94
-30 113 -41 19 -12 37 -19 40 -15 3 3 11 -1 17 -9 17 -21 139 -83 180 -90 29
-6 44 -3 72 16 36 25 87 95 119 162 9 20 20 37 23 37 3 0 45 -25 93 -55z m439
41 c0 -2 -8 -10 -17 -17 -16 -13 -17 -12 -4 4 13 16 21 21 21 13z m2415 -15
c-3 -6 -11 -11 -17 -11 -6 0 -6 6 2 15 14 17 26 13 15 -4z m1575 9 c0 -5 -4
-10 -10 -10 -5 0 -10 5 -10 10 0 6 5 10 10 10 6 0 10 -4 10 -10z m-310 -10 c0
-5 -4 -10 -10 -10 -5 0 -10 5 -10 10 0 6 5 10 10 10 6 0 10 -4 10 -10z m70
-30 c0 -5 -4 -10 -9 -10 -6 0 -13 5 -16 10 -3 6 1 10 9 10 9 0 16 -4 16 -10z
m87 -6 c-3 -3 -12 -4 -19 -1 -8 3 -5 6 6 6 11 1 17 -2 13 -5z m-33 -70 c5 -14
4 -15 -9 -4 -17 14 -19 20 -6 20 5 0 12 -7 15 -16z m-2113 -17 c-10 -9 -11 -8
-5 6 3 10 9 15 12 12 3 -3 0 -11 -7 -18z m2309 -7 c0 -5 -2 -10 -4 -10 -3 0
-8 5 -11 10 -3 6 -1 10 4 10 6 0 11 -4 11 -10z m-453 -32 c-3 -8 -6 -5 -6 6
-1 11 2 17 5 13 3 -3 4 -12 1 -19z m93 -49 c0 -6 -4 -7 -10 -4 -5 3 -10 11
-10 16 0 6 5 7 10 4 6 -3 10 -11 10 -16z m70 11 c0 -5 -4 -10 -10 -10 -5 0
-10 5 -10 10 0 6 5 10 10 10 6 0 10 -4 10 -10z m25 -60 c3 -5 1 -10 -4 -10 -6
0 -11 5 -11 10 0 6 2 10 4 10 3 0 8 -4 11 -10z m-225 -42 c0 -13 -23 -5 -28
10 -2 7 2 10 12 6 9 -3 16 -11 16 -16z m200 -21 c0 -5 -4 -5 -10 -2 -5 3 -10
14 -10 23 0 15 2 15 10 2 5 -8 10 -19 10 -23z m-1403 -19 c-3 -8 -6 -5 -6 6
-1 11 2 17 5 13 3 -3 4 -12 1 -19z m1764 -31 c-1 -12 -15 -9 -19 4 -3 6 1 10
8 8 6 -3 11 -8 11 -12z m99 -17 c0 -5 -4 -10 -10 -10 -5 0 -10 5 -10 10 0 6 5
10 10 10 6 0 10 -4 10 -10z m-3966 -35 c-4 -8 -8 -15 -10 -15 -2 0 -4 7 -4 15
0 8 4 15 10 15 5 0 7 -7 4 -15z m3126 -5 c0 -5 -2 -10 -4 -10 -3 0 -8 5 -11
10 -3 6 -1 10 4 10 6 0 11 -4 11 -10z m920 0 c0 -5 -5 -10 -11 -10 -5 0 -7 5
-4 10 3 6 8 10 11 10 2 0 4 -4 4 -10z m-370 -69 c0 -6 -4 -13 -10 -16 -5 -3
-10 1 -10 9 0 9 5 16 10 16 6 0 10 -4 10 -9z m350 -12 c0 -5 -4 -9 -10 -9 -5
0 -10 7 -10 16 0 8 5 12 10 9 6 -3 10 -10 10 -16z m-1010 -9 c0 -5 -4 -10 -10
-10 -5 0 -10 5 -10 10 0 6 5 10 10 10 6 0 10 -4 10 -10z m760 0 c0 -5 -4 -10
-10 -10 -5 0 -10 5 -10 10 0 6 5 10 10 10 6 0 10 -4 10 -10z m280 -10 c0 -5
-2 -10 -4 -10 -3 0 -8 5 -11 10 -3 6 -1 10 4 10 6 0 11 -4 11 -10z m-2575 -9
c3 -5 1 -12 -5 -16 -5 -3 -10 1 -10 9 0 18 6 21 15 7z m1362 -33 c-3 -8 -6 -5
-6 6 -1 11 2 17 5 13 3 -3 4 -12 1 -19z m113 1 c0 -6 -4 -7 -10 -4 -5 3 -10
11 -10 16 0 6 5 7 10 4 6 -3 10 -11 10 -16z m255 -18 c-3 -6 -11 -8 -17 -5 -6
4 -5 9 3 15 16 10 23 4 14 -10z m-594 -14 c-10 -9 -11 -8 -5 6 3 10 9 15 12
12 3 -3 0 -11 -7 -18z m1299 9 c0 -3 -4 -8 -10 -11 -5 -3 -10 -1 -10 4 0 6 5
11 10 11 6 0 10 -2 10 -4z m-3150 -16 c0 -5 -2 -10 -4 -10 -3 0 -8 5 -11 10
-3 6 -1 10 4 10 6 0 11 -4 11 -10z m1720 -10 c0 -5 -4 -10 -10 -10 -5 0 -10 5
-10 10 0 6 5 10 10 10 6 0 10 -4 10 -10z m1290 1 c0 -6 -4 -13 -10 -16 -5 -3
-10 1 -10 9 0 9 5 16 10 16 6 0 10 -4 10 -9z m-17755 -26 c279 -59 458 -191
570 -420 83 -171 105 -307 105 -656 l0 -249 -243 0 c-134 0 -278 3 -319 6
l-76 7 2 251 c1 224 -1 257 -18 310 -37 113 -111 160 -251 161 -128 0 -209
-64 -239 -190 -18 -73 -23 -240 -33 -990 -12 -892 -10 -1312 5 -1363 18 -61
84 -124 147 -143 117 -33 253 0 304 75 51 76 54 100 60 446 4 179 6 359 6 400
l0 75 -143 3 -143 3 2 297 c1 163 4 302 6 308 4 11 325 10 731 -2 l192 -6 0
-82 c-1 -340 -22 -1300 -30 -1359 -36 -250 -122 -434 -271 -571 -104 -96 -213
-151 -371 -186 -276 -61 -604 -15 -795 109 -191 125 -293 284 -354 551 -23
100 -24 120 -22 435 2 482 22 1771 28 1905 11 223 76 431 179 573 131 182 307
279 581 321 64 9 313 -2 390 -19z m17925 21 c0 -2 -8 -10 -17 -17 -16 -13 -17
-12 -4 4 13 16 21 21 21 13z m-3460 -16 c0 -5 -4 -10 -10 -10 -5 0 -10 5 -10
10 0 6 5 10 10 10 6 0 10 -4 10 -10z m2260 6 c0 -3 -4 -8 -10 -11 -5 -3 -10
-1 -10 4 0 6 5 11 10 11 6 0 10 -2 10 -4z m420 -32 c0 -8 -5 -12 -10 -9 -6 4
-8 11 -5 16 9 14 15 11 15 -7z m1030 -19 c0 -2 -9 -3 -20 -2 -11 1 -20 7 -20
14 0 11 5 11 20 3 11 -6 20 -13 20 -15z m-765 -5 c3 -5 2 -10 -4 -10 -5 0 -13
5 -16 10 -3 6 -2 10 4 10 5 0 13 -4 16 -10z m-15586 -17 l24 -6 -7 -561 c-4
-309 -9 -669 -11 -801 -2 -132 -7 -397 -10 -590 -3 -192 -8 -503 -11 -690 -7
-385 1 -458 54 -525 57 -71 177 -105 282 -80 40 10 64 24 100 59 83 81 81 56
95 1251 3 239 7 525 10 635 3 110 8 445 11 745 3 300 9 548 13 552 3 3 148 3
321 0 l315 -7 -2 -245 c-2 -279 -8 -716 -29 -1945 -10 -657 -17 -878 -28 -935
-52 -276 -163 -464 -346 -585 -143 -95 -274 -133 -486 -142 -305 -13 -546 61
-707 216 -128 122 -195 247 -243 456 -17 71 -19 125 -19 485 0 223 3 641 8
930 4 289 9 707 13 930 3 223 7 455 9 515 2 61 4 163 4 228 l1 117 308 0 c169
0 318 -3 331 -7z m14851 -3 c0 -5 -2 -10 -4 -10 -3 0 -8 5 -11 10 -3 6 -1 10
4 10 6 0 11 -4 11 -10z m935 0 c3 -5 1 -10 -4 -10 -6 0 -11 5 -11 10 0 6 2 10
4 10 3 0 8 -4 11 -10z m517 -22 c-7 -7 -12 -8 -12 -2 0 14 12 26 19 19 2 -3
-1 -11 -7 -17z m188 18 c0 -2 -7 -7 -16 -10 -8 -3 -12 -2 -9 4 6 10 25 14 25
6z m-4580 -16 c0 -5 -2 -10 -4 -10 -3 0 -8 5 -11 10 -3 6 -1 10 4 10 6 0 11
-4 11 -10z m4270 -6 c0 -8 -5 -12 -10 -9 -6 4 -8 11 -5 16 9 14 15 11 15 -7z
m-13270 -13 l144 -6 53 -350 c29 -192 55 -370 58 -395 6 -46 31 -212 66 -445
10 -71 28 -193 39 -270 11 -77 27 -183 35 -235 9 -52 29 -189 46 -305 17 -115
41 -282 54 -370 30 -204 71 -484 95 -645 48 -327 72 -487 91 -620 11 -80 23
-156 26 -168 l6 -24 -334 7 c-184 4 -336 9 -338 11 -2 2 -17 104 -32 226 -16
123 -37 284 -46 358 l-19 135 -99 6 c-55 4 -191 7 -302 8 l-203 2 0 -32 c0
-17 -4 -48 -10 -68 -5 -20 -20 -108 -34 -196 -55 -346 -68 -420 -73 -425 -6
-6 -605 0 -616 7 -5 3 -6 12 -3 20 4 9 13 54 21 102 20 122 44 259 79 451 8
47 34 189 56 315 22 127 62 354 89 505 28 151 55 304 60 340 6 36 18 101 26
145 9 44 22 116 30 160 19 108 30 169 55 310 41 230 66 373 86 485 7 47 18
108 23 135 31 163 51 277 85 475 26 151 56 314 61 338 l6 23 287 -2 c158 -1
352 -5 432 -8z m12775 -1 c3 -5 1 -10 -4 -10 -6 0 -11 5 -11 10 0 6 2 10 4 10
3 0 8 -4 11 -10z m-3385 -4 c0 -3 -4 -8 -10 -11 -5 -3 -10 -1 -10 4 0 6 5 11
10 11 6 0 10 -2 10 -4z m3710 -5 c0 -5 -7 -12 -16 -15 -14 -5 -15 -4 -4 9 14
17 20 19 20 6z m-11190 -16 c168 -3 321 -8 340 -10 371 -55 566 -192 671 -472
48 -130 59 -223 59 -516 0 -348 -24 -490 -109 -647 -38 -69 -179 -220 -205
-220 -27 0 -18 -15 32 -50 89 -64 175 -178 203 -272 28 -92 47 -180 53 -245 8
-81 9 -860 2 -872 -3 -4 -1 -88 3 -187 8 -157 12 -187 36 -249 14 -38 27 -76
28 -83 3 -18 -662 -18 -679 1 -13 13 -37 88 -51 152 -4 22 -8 306 -8 630 0
674 1 663 -80 742 -57 55 -117 71 -270 74 l-120 3 -6 -270 c-4 -148 -10 -505
-13 -794 -4 -288 -10 -528 -12 -532 -3 -4 -35 -5 -72 -3 -37 2 -186 4 -331 5
l-263 0 6 523 c3 287 8 605 11 707 3 102 7 403 10 670 3 267 7 562 10 655 3
94 8 415 11 715 4 300 8 548 11 552 2 4 99 5 216 3 117 -3 349 -7 517 -10z
m7863 -20 c-3 -9 -8 -14 -10 -11 -3 3 -2 9 2 15 9 16 15 13 8 -4z m1227 5 c0
-5 -5 -10 -11 -10 -5 0 -7 5 -4 10 3 6 8 10 11 10 2 0 4 -4 4 -10z m1160 -10
c0 -5 -5 -10 -11 -10 -5 0 -7 5 -4 10 3 6 8 10 11 10 2 0 4 -4 4 -10z m-7590
-16 c284 -21 521 -139 647 -320 64 -92 143 -295 143 -366 0 -16 5 -38 11 -49
11 -22 13 -443 3 -1044 -3 -198 -7 -517 -9 -710 -3 -192 -7 -384 -10 -425 -9
-118 -25 -243 -35 -270 -5 -14 -16 -52 -26 -85 -84 -290 -307 -479 -629 -535
-99 -17 -148 -18 -485 -14 -206 2 -440 7 -520 9 -80 2 -153 4 -163 5 -18 0
-19 15 -13 348 3 191 10 649 16 1017 5 369 12 819 15 1000 2 182 7 515 10 740
3 226 8 464 10 530 2 66 4 135 5 154 l0 34 478 -7 c262 -3 511 -9 552 -12z
m8700 6 c0 -5 -4 -10 -10 -10 -5 0 -10 5 -10 10 0 6 5 10 10 10 6 0 10 -4 10
-10z m445 0 c-3 -5 -1 -10 6 -10 7 0 10 -2 7 -5 -7 -8 -38 5 -38 16 0 5 7 9
16 9 8 0 12 -4 9 -10z m-5465 -16 c112 -16 129 -22 280 -93 70 -34 174 -115
224 -176 64 -78 135 -205 157 -280 11 -38 24 -79 29 -90 33 -75 35 -370 15
-1540 -3 -159 -7 -421 -10 -582 -5 -301 -12 -378 -46 -523 -25 -106 -37 -135
-109 -255 -39 -64 -177 -215 -197 -215 -4 0 -19 -10 -33 -22 -51 -47 -203
-104 -325 -124 -118 -18 -368 -18 -462 2 -63 13 -124 32 -218 68 -16 6 -43 20
-60 30 -16 11 -41 26 -55 34 -70 43 -187 166 -229 242 -58 105 -91 195 -118
320 -19 92 -22 355 -9 1070 3 173 9 520 12 770 4 299 11 496 21 575 18 147 19
156 26 175 4 8 20 52 36 97 41 114 122 234 213 317 74 67 85 74 163 116 74 39
225 82 325 93 93 10 266 6 370 -9z m-1821 -14 l164 0 -7 -582 c-4 -321 -9
-684 -11 -808 -2 -124 -6 -416 -10 -650 -3 -234 -10 -672 -15 -975 -6 -302
-10 -610 -10 -683 l0 -134 -332 7 c-183 4 -337 9 -341 12 -4 3 -6 71 -3 151 3
81 8 372 11 647 3 275 7 606 10 735 3 129 7 415 10 635 15 1130 25 1637 32
1649 3 4 80 6 172 2 91 -3 240 -6 330 -6z m3766 -20 c3 -5 2 -10 -4 -10 -5 0
-13 5 -16 10 -3 6 -2 10 4 10 5 0 13 -4 16 -10z m2918 -15 c-3 -9 -8 -14 -10
-11 -3 3 -2 9 2 15 9 16 15 13 8 -4z m-3242 -14 c199 0 949 -11 1091 -16 72
-3 120 0 124 6 4 6 11 6 19 -1 8 -7 31 -10 52 -8 l38 3 -2 -235 c-1 -129 -2
-270 -2 -312 l-1 -78 -143 0 c-101 0 -147 -4 -156 -12 -11 -10 -13 -10 -7 0 5
9 -7 12 -46 13 -29 1 -117 3 -195 5 -106 3 -143 1 -143 -8 0 -9 -3 -9 -12 0
-8 8 -59 12 -164 12 l-152 0 -1 -137 c-1 -76 -4 -279 -7 -451 l-6 -313 118 0
c249 1 679 -10 686 -17 4 -4 5 -144 1 -311 l-6 -303 -404 7 -403 6 0 -68 c-1
-171 -10 -712 -15 -844 l-4 -147 242 -6 c133 -3 361 -8 507 -10 146 -3 267 -5
269 -5 5 -1 -8 -601 -14 -610 -2 -5 -79 -6 -170 -4 -136 5 -165 3 -165 -8 0
-11 -2 -11 -8 -2 -6 10 -131 14 -532 19 -288 3 -529 8 -535 11 -7 2 -23 3 -36
2 -13 -1 -73 -1 -133 -1 l-108 2 6 298 c6 301 12 659 21 1367 3 215 7 485 10
600 2 116 7 458 10 760 6 544 11 785 19 792 2 2 40 5 84 6 44 1 84 6 88 9 4 4
14 3 24 -2 9 -5 82 -9 161 -9z m2719 9 c91 -2 273 -48 350 -87 110 -57 226
-159 282 -249 41 -65 95 -177 106 -219 5 -22 17 -65 25 -95 9 -30 19 -92 22
-138 9 -109 10 -391 1 -399 -7 -7 -138 -8 -454 -2 -170 3 -172 3 -188 27 -11
17 -13 27 -5 35 7 7 11 53 11 114 0 92 -2 103 -20 113 -11 6 -20 18 -20 28 1
16 1 16 11 0 5 -10 15 -18 21 -18 11 0 6 53 -13 123 -10 37 -67 113 -77 102
-3 -3 -15 4 -28 16 -16 15 -40 22 -95 26 -125 9 -196 -24 -238 -110 -27 -55
-50 -231 -34 -256 7 -10 9 -27 7 -38 -16 -59 71 -256 160 -363 89 -109 354
-370 375 -370 6 0 11 -4 11 -8 0 -5 26 -36 58 -69 56 -60 180 -192 228 -245
13 -15 24 -29 24 -32 0 -2 19 -33 43 -67 23 -34 45 -67 49 -73 54 -82 122
-282 144 -426 17 -108 22 -344 10 -435 -12 -86 -46 -246 -57 -263 -5 -9 -18
-37 -27 -62 -71 -185 -236 -345 -436 -425 -181 -72 -450 -84 -701 -31 -34 7
-159 56 -169 66 -6 6 -17 10 -26 10 -9 0 -25 9 -35 20 -10 11 -23 20 -28 20
-17 0 -183 173 -206 215 -12 22 -25 47 -31 55 -15 25 -59 144 -75 206 -25 96
-35 217 -35 427 l0 197 298 0 c163 0 307 -3 319 -6 21 -6 22 -10 25 -222 l3
-217 30 -59 c24 -48 40 -64 82 -88 63 -36 136 -45 218 -28 47 10 67 20 97 51
49 50 71 94 72 146 0 24 4 43 9 43 10 0 9 155 -3 230 -12 72 -38 151 -54 162
-6 4 -11 13 -12 20 0 7 -2 20 -2 29 -5 46 -271 357 -294 343 -6 -4 -8 -3 -5 3
6 9 -31 47 -208 214 -82 77 -160 162 -218 234 -26 33 -53 67 -60 75 -7 8 -33
47 -59 85 -99 149 -158 305 -188 495 -12 81 -13 373 -1 414 5 17 17 67 26 111
10 44 28 107 42 140 34 82 111 212 128 219 8 3 15 11 15 18 0 7 41 45 90 83
49 39 90 73 90 78 0 4 6 7 14 7 7 0 40 12 72 26 53 23 131 46 247 71 36 7 84
8 287 3z m1232 -12 c-7 -7 -12 -8 -12 -2 0 14 12 26 19 19 2 -3 -1 -11 -7 -17z
m-672 3 c0 -5 -7 -12 -16 -15 -14 -5 -15 -4 -4 9 14 17 20 19 20 6z m325 -11
c3 -5 1 -10 -4 -10 -6 0 -11 5 -11 10 0 6 2 10 4 10 3 0 8 -4 11 -10z m-1530
-30 c3 -5 1 -10 -4 -10 -6 0 -11 5 -11 10 0 6 2 10 4 10 3 0 8 -4 11 -10z
m1805 -20 c0 -5 -5 -10 -11 -10 -5 0 -7 5 -4 10 3 6 8 10 11 10 2 0 4 -4 4
-10z m-315 -41 c-10 -15 -25 -10 -19 6 4 8 10 12 15 9 5 -3 7 -10 4 -15z
m-1575 -29 c0 -5 -5 -10 -11 -10 -5 0 -7 5 -4 10 3 6 8 10 11 10 2 0 4 -4 4
-10z m1400 -41 c0 -6 -4 -7 -10 -4 -5 3 -10 11 -10 16 0 6 5 7 10 4 6 -3 10
-11 10 -16z m583 6 c-3 -9 -8 -14 -10 -11 -3 3 -2 9 2 15 9 16 15 13 8 -4z
m-653 -56 c0 -14 -16 -11 -29 5 -10 12 -8 13 8 9 12 -3 21 -9 21 -14z m-3800
-19 c0 -5 -4 -10 -10 -10 -5 0 -10 5 -10 10 0 6 5 10 10 10 6 0 10 -4 10 -10z
m4060 -16 c0 -8 -5 -12 -10 -9 -6 4 -8 11 -5 16 9 14 15 11 15 -7z m420 0 c0
-8 -5 -12 -10 -9 -6 4 -8 11 -5 16 9 14 15 11 15 -7z m-590 -18 c0 -3 -4 -8
-10 -11 -5 -3 -10 -1 -10 4 0 6 5 11 10 11 6 0 10 -2 10 -4z m404 -11 c-4 -8
-10 -12 -15 -9 -11 6 -2 24 11 24 5 0 7 -7 4 -15z m-2099 -25 c3 -5 1 -10 -4
-10 -6 0 -11 5 -11 10 0 6 2 10 4 10 3 0 8 -4 11 -10z m2015 -21 c0 -5 -4 -9
-10 -9 -5 0 -10 7 -10 16 0 8 5 12 10 9 6 -3 10 -10 10 -16z m-120 -19 c0 -11
-4 -20 -9 -20 -5 0 -7 9 -4 20 3 11 7 20 9 20 2 0 4 -9 4 -20z m180 -30 c0 -5
-2 -10 -4 -10 -3 0 -8 5 -11 10 -3 6 -1 10 4 10 6 0 11 -4 11 -10z m-2385 -80
c3 -5 1 -10 -4 -10 -6 0 -11 5 -11 10 0 6 2 10 4 10 3 0 8 -4 11 -10z m2695
-4 c0 -8 -7 -16 -15 -20 -13 -4 -14 -2 -5 14 13 23 20 26 20 6z m-340 -26 c0
-5 -2 -10 -4 -10 -3 0 -8 5 -11 10 -3 6 -1 10 4 10 6 0 11 -4 11 -10z m220
-28 c0 -15 -2 -15 -10 -2 -13 20 -13 33 0 25 6 -3 10 -14 10 -23z m217 14 c-3
-8 -1 -17 6 -20 7 -2 5 -5 -5 -5 -20 -1 -32 15 -23 29 10 15 28 12 22 -4z
m-2682 -7 c11 -16 1 -19 -13 -3 -7 8 -8 14 -3 14 5 0 13 -5 16 -11z m2615 7
c0 -3 -4 -8 -10 -11 -5 -3 -10 -1 -10 4 0 6 5 11 10 11 6 0 10 -2 10 -4z
m-385 -36 c3 -5 2 -10 -4 -10 -5 0 -13 5 -16 10 -3 6 -2 10 4 10 5 0 13 -4 16
-10z m45 -50 c0 -5 -2 -10 -4 -10 -3 0 -8 5 -11 10 -3 6 -1 10 4 10 6 0 11 -4
11 -10z m387 -25 c-4 -8 -11 -15 -17 -15 -14 0 -13 27 3 33 16 6 21 1 14 -18z
m-567 5 c0 -5 -4 -10 -9 -10 -6 0 -13 5 -16 10 -3 6 1 10 9 10 9 0 16 -4 16
-10z m-2150 -4 c0 -3 -4 -8 -10 -11 -5 -3 -10 -1 -10 4 0 6 5 11 10 11 6 0 10
-2 10 -4z m-2225 -46 c3 -5 1 -10 -4 -10 -6 0 -11 5 -11 10 0 6 2 10 4 10 3 0
8 -4 11 -10z m4715 6 c0 -3 -4 -8 -10 -11 -5 -3 -10 -1 -10 4 0 6 5 11 10 11
6 0 10 -2 10 -4z m-3035 -26 c3 -5 1 -10 -4 -10 -6 0 -11 5 -11 10 0 6 2 10 4
10 3 0 8 -4 11 -10z m3155 0 c0 -5 -4 -10 -10 -10 -5 0 -10 5 -10 10 0 6 5 10
10 10 6 0 10 -4 10 -10z m-3075 -10 c3 -5 1 -10 -4 -10 -6 0 -11 5 -11 10 0 6
2 10 4 10 3 0 8 -4 11 -10z m-10 -89 c3 -5 1 -12 -5 -16 -5 -3 -10 1 -10 9 0
18 6 21 15 7z m2585 -21 c0 -5 -4 -10 -10 -10 -5 0 -10 5 -10 10 0 6 5 10 10
10 6 0 10 -4 10 -10z m-2948 -22 c-7 -7 -12 -8 -12 -2 0 14 12 26 19 19 2 -3
-1 -11 -7 -17z m3103 -18 c-3 -5 -11 -10 -16 -10 -6 0 -7 5 -4 10 3 6 11 10
16 10 6 0 7 -4 4 -10z m-4405 -10 c0 -5 -5 -10 -11 -10 -5 0 -7 5 -4 10 3 6 8
10 11 10 2 0 4 -4 4 -10z m3280 -109 c0 -5 -7 -12 -16 -15 -14 -5 -15 -4 -4 9
14 17 20 19 20 6z m-2090 -11 c0 -5 -2 -10 -4 -10 -3 0 -8 5 -11 10 -3 6 -1
10 4 10 6 0 11 -4 11 -10z m3632 -32 c-7 -7 -12 -8 -12 -2 0 14 12 26 19 19 2
-3 -1 -11 -7 -17z m-77 -38 c3 -5 2 -10 -4 -10 -5 0 -13 5 -16 10 -3 6 -2 10
4 10 5 0 13 -4 16 -10z m115 -164 c0 -3 -4 -8 -10 -11 -5 -3 -10 -1 -10 4 0 6
5 11 10 11 6 0 10 -2 10 -4z m-1500 -56 c0 -5 -5 -10 -11 -10 -5 0 -7 5 -4 10
3 6 8 10 11 10 2 0 4 -4 4 -10z m-3155 -50 c3 -5 1 -10 -4 -10 -6 0 -11 5 -11
10 0 6 2 10 4 10 3 0 8 -4 11 -10z m3425 0 c0 -5 -5 -10 -11 -10 -5 0 -7 5 -4
10 3 6 8 10 11 10 2 0 4 -4 4 -10z m-7083 -42 c-3 -8 -6 -5 -6 6 -1 11 2 17 5
13 3 -3 4 -12 1 -19z m7493 2 c0 -5 -2 -10 -4 -10 -3 0 -8 5 -11 10 -3 6 -1
10 4 10 6 0 11 -4 11 -10z m-7710 -34 c0 -3 -4 -8 -10 -11 -5 -3 -10 -1 -10 4
0 6 5 11 10 11 6 0 10 -2 10 -4z m7985 -6 c3 -5 -1 -10 -9 -10 -9 0 -16 5 -16
10 0 6 4 10 9 10 6 0 13 -4 16 -10z m-739 -58 c-18 -16 -18 -16 -6 6 6 13 14
21 18 18 3 -4 -2 -14 -12 -24z m1082 -64 c7 -7 12 -18 12 -25 0 -8 -7 -6 -20
7 -11 11 -20 22 -20 25 0 9 16 5 28 -7z m-68 -23 c0 -8 -4 -15 -10 -15 -5 0
-7 7 -4 15 4 8 8 15 10 15 2 0 4 -7 4 -15z m-2135 -5 c3 -5 1 -10 -4 -10 -6 0
-11 5 -11 10 0 6 2 10 4 10 3 0 8 -4 11 -10z m-4910 -70 c3 -5 1 -10 -4 -10
-6 0 -11 5 -11 10 0 6 2 10 4 10 3 0 8 -4 11 -10z m6181 -87 c-7 -7 -26 7 -26
19 0 6 6 6 15 -2 9 -7 13 -15 11 -17z m344 13 c0 -3 -4 -8 -10 -11 -5 -3 -10
-1 -10 4 0 6 5 11 10 11 6 0 10 -2 10 -4z m-170 -76 c0 -5 -4 -10 -10 -10 -5
0 -10 5 -10 10 0 6 5 10 10 10 6 0 10 -4 10 -10z m700 0 c0 -5 -5 -10 -11 -10
-5 0 -7 5 -4 10 3 6 8 10 11 10 2 0 4 -4 4 -10z m-495 -10 c3 -5 1 -10 -4 -10
-6 0 -11 5 -11 10 0 6 2 10 4 10 3 0 8 -4 11 -10z m-3875 -140 c0 -5 -5 -10
-11 -10 -5 0 -7 5 -4 10 3 6 8 10 11 10 2 0 4 -4 4 -10z m3890 -100 c0 -5 -2
-10 -4 -10 -3 0 -8 5 -11 10 -3 6 -1 10 4 10 6 0 11 -4 11 -10z m-7540 -21 c0
-6 -4 -7 -10 -4 -5 3 -10 11 -10 16 0 6 5 7 10 4 6 -3 10 -11 10 -16z m7930
-123 c0 -3 -4 -8 -10 -11 -5 -3 -10 -1 -10 4 0 6 5 11 10 11 6 0 10 -2 10 -4z
m-4280 -26 c0 -5 -5 -10 -11 -10 -5 0 -7 5 -4 10 3 6 8 10 11 10 2 0 4 -4 4
-10z m2590 -110 c0 -5 -2 -10 -4 -10 -3 0 -8 5 -11 10 -3 6 -1 10 4 10 6 0 11
-4 11 -10z m1865 -100 c3 -5 1 -10 -4 -10 -6 0 -11 5 -11 10 0 6 2 10 4 10 3
0 8 -4 11 -10z m-8475 -120 c0 -5 -5 -10 -11 -10 -5 0 -7 5 -4 10 3 6 8 10 11
10 2 0 4 -4 4 -10z m5904 -5 c3 -8 1 -15 -4 -15 -6 0 -10 7 -10 15 0 8 2 15 4
15 2 0 6 -7 10 -15z m2246 -59 c0 -3 -4 -8 -10 -11 -5 -3 -10 -1 -10 4 0 6 5
11 10 11 6 0 10 -2 10 -4z m-8110 -16 c0 -5 -4 -10 -10 -10 -5 0 -10 5 -10 10
0 6 5 10 10 10 6 0 10 -4 10 -10z m8395 -80 c3 -5 1 -10 -4 -10 -6 0 -11 5
-11 10 0 6 2 10 4 10 3 0 8 -4 11 -10z m90 -30 c3 -5 1 -10 -4 -10 -6 0 -11 5
-11 10 0 6 2 10 4 10 3 0 8 -4 11 -10z m-3225 -20 c0 -5 -4 -10 -10 -10 -5 0
-10 5 -10 10 0 6 5 10 10 10 6 0 10 -4 10 -10z m3095 -90 c3 -5 2 -10 -4 -10
-5 0 -13 5 -16 10 -3 6 -2 10 4 10 5 0 13 -4 16 -10z m-1125 -200 c0 -5 -7
-10 -15 -10 -8 0 -15 5 -15 10 0 6 7 10 15 10 8 0 15 -4 15 -10z m-2230 -15
c7 -9 8 -15 2 -15 -5 0 -12 7 -16 15 -3 8 -4 15 -2 15 2 0 9 -7 16 -15z m3636
-60 c10 -8 14 -15 8 -15 -5 0 -19 7 -30 15 -10 8 -14 15 -8 15 5 0 19 -7 30
-15z m-16 -110 c11 -13 10 -14 -4 -9 -9 3 -16 10 -16 15 0 13 6 11 20 -6z
m-647 -100 c-3 -9 -8 -14 -10 -11 -3 3 -2 9 2 15 9 16 15 13 8 -4z m-7683 -25
c0 -5 -2 -10 -4 -10 -3 0 -8 5 -11 10 -3 6 -1 10 4 10 6 0 11 -4 11 -10z
m7870 -454 c0 -3 -4 -8 -10 -11 -5 -3 -10 -1 -10 4 0 6 5 11 10 11 6 0 10 -2
10 -4z m-480 -46 c0 -5 -5 -10 -11 -10 -5 0 -7 5 -4 10 3 6 8 10 11 10 2 0 4
-4 4 -10z m-1865 -30 c3 -5 1 -10 -4 -10 -6 0 -11 5 -11 10 0 6 2 10 4 10 3 0
8 -4 11 -10z m-16310 -176 c298 -12 498 -92 637 -255 88 -103 131 -198 170
-375 21 -93 22 -122 20 -474 -1 -206 -4 -490 -7 -630 -2 -140 -7 -430 -11
-645 -6 -414 -12 -500 -45 -635 -43 -178 -154 -350 -281 -436 -23 -16 -44 -32
-46 -36 -2 -5 -8 -8 -13 -8 -5 0 -39 -14 -76 -32 -37 -17 -74 -31 -82 -31 -9
0 -21 -3 -26 -8 -6 -4 -48 -13 -95 -19 -88 -12 -295 -13 -805 -1 l-290 6 0
115 c0 217 16 1395 20 1495 2 55 9 519 15 1030 7 512 14 936 16 943 3 11 73
12 381 8 208 -4 441 -9 518 -12z m2577 -42 c3 -4 13 -61 22 -127 9 -66 27
-194 40 -285 25 -166 30 -199 65 -435 11 -71 25 -166 31 -210 6 -44 16 -93 22
-110 17 -48 62 -150 68 -155 3 -3 15 -25 26 -50 62 -131 171 -341 203 -390 31
-48 41 -65 53 -90 7 -14 15 -27 19 -30 3 -3 12 -17 20 -33 26 -50 151 -246
165 -258 8 -6 14 -15 14 -20 0 -13 118 -180 238 -335 113 -148 166 -216 186
-237 12 -12 39 -44 61 -72 152 -194 566 -612 880 -890 37 -33 84 -75 104 -92
20 -18 92 -80 161 -138 69 -58 137 -117 152 -130 15 -14 30 -25 33 -25 3 0 44
-31 89 -70 46 -38 88 -70 93 -70 6 0 19 -11 29 -25 10 -14 23 -25 27 -25 5 0
31 -18 57 -40 26 -22 51 -40 54 -40 3 0 14 -7 24 -16 34 -30 145 -114 178
-135 19 -11 34 -25 34 -30 0 -5 5 -9 11 -9 7 0 31 -16 55 -35 23 -19 45 -35
48 -35 3 0 14 -7 24 -16 41 -37 108 -84 120 -84 6 0 12 -5 12 -10 0 -6 8 -14
18 -17 9 -4 27 -17 39 -30 12 -13 25 -23 29 -23 3 0 23 -13 44 -30 21 -16 41
-30 44 -30 4 0 35 -22 70 -50 35 -27 69 -50 75 -50 6 0 14 -7 17 -15 4 -8 10
-15 16 -15 5 0 24 -11 42 -25 18 -14 36 -25 40 -25 4 0 12 -5 19 -10 32 -27
147 -110 152 -110 6 0 82 -54 112 -80 7 -5 15 -10 18 -10 3 0 30 -18 59 -40
29 -22 56 -40 60 -40 4 0 33 -19 64 -42 32 -24 65 -47 74 -53 8 -5 62 -41 119
-80 57 -38 112 -74 121 -80 31 -19 143 -94 185 -125 23 -16 47 -30 52 -30 6 0
14 -6 18 -12 8 -13 14 -17 93 -65 25 -15 61 -39 81 -55 20 -15 41 -28 47 -28
6 0 12 -3 14 -7 3 -8 90 -67 98 -67 3 0 32 -19 65 -43 83 -59 79 -57 98 -68 9
-5 33 -22 54 -36 21 -14 65 -43 98 -65 33 -21 62 -42 63 -46 2 -5 8 -8 14 -8
5 0 30 -15 56 -32 26 -18 55 -37 64 -43 10 -5 34 -22 55 -36 21 -15 65 -44 98
-65 33 -21 62 -41 65 -44 3 -3 12 -9 21 -15 50 -30 146 -94 184 -122 24 -18
48 -33 54 -33 5 0 14 -6 18 -13 9 -13 33 -30 78 -52 17 -9 46 -25 65 -37 22
-13 60 -23 100 -26 36 -3 68 -10 72 -16 5 -8 11 -7 20 2 6 6 28 12 48 12 35 0
75 18 230 103 36 20 90 49 120 65 30 17 75 42 100 56 56 32 100 55 171 93 31
16 70 40 87 51 16 12 33 22 37 22 4 0 20 9 36 21 16 11 29 17 29 13 0 -3 15 4
33 18 17 13 43 29 57 36 14 6 32 16 40 21 8 6 87 51 175 101 88 51 167 97 175
104 8 7 26 18 40 24 14 7 43 23 65 37 22 13 49 29 60 35 11 6 36 21 56 33 19
12 61 38 93 57 32 19 68 42 81 50 42 27 137 85 174 105 20 11 38 22 41 25 10
10 90 60 96 60 3 0 23 12 43 28 42 32 64 46 108 68 18 9 37 22 44 30 6 8 17
14 24 14 8 0 15 3 17 8 5 11 66 52 77 52 6 0 14 6 18 13 4 6 22 19 38 27 17 8
32 17 35 20 3 3 31 23 63 43 31 21 57 43 57 49 0 6 3 8 7 5 3 -4 13 -1 21 5 8
7 22 17 33 23 21 12 162 107 169 115 3 3 19 14 35 26 17 11 54 37 82 57 29 20
56 37 59 37 3 0 28 18 54 40 26 22 51 40 55 40 5 0 27 16 51 35 23 19 45 35
49 35 6 0 37 23 84 62 16 13 79 60 169 125 29 21 72 53 95 71 23 18 52 40 65
50 13 9 40 32 61 50 21 17 41 32 45 32 4 0 38 26 76 57 38 32 95 78 126 103
76 60 289 236 387 321 96 82 302 264 307 270 3 3 39 35 80 70 119 101 195 174
511 489 l296 296 7 315 c3 173 11 658 16 1079 12 945 19 1312 24 1318 3 2 35
4 73 4 204 0 500 -2 513 -2 8 -1 87 -3 175 -5 273 -7 387 -25 523 -80 236 -96
373 -288 412 -581 15 -109 8 -532 -10 -636 -15 -89 -61 -218 -102 -286 -31
-51 -160 -182 -179 -182 -20 0 -7 -19 30 -43 83 -55 149 -141 188 -247 8 -19
23 -78 36 -130 21 -92 22 -111 22 -655 0 -589 1 -605 47 -723 11 -29 17 -56
13 -60 -8 -8 -577 -5 -617 4 -24 5 -31 15 -48 72 -34 109 -34 117 -31 857 2
307 0 347 -17 407 -37 131 -71 156 -247 179 -101 14 -150 5 -164 -29 -13 -33
-18 -214 -27 -917 -4 -314 -10 -544 -16 -550 -10 -11 -511 -11 -584 0 l-44 6
0 217 0 216 -247 -245 c-137 -135 -288 -281 -338 -324 -49 -44 -130 -119 -180
-167 -50 -48 -108 -102 -130 -120 -22 -18 -66 -57 -100 -86 -121 -107 -151
-132 -196 -169 -26 -21 -74 -60 -108 -88 -34 -27 -83 -67 -109 -88 -26 -21
-60 -49 -77 -63 -76 -63 -103 -84 -109 -84 -4 0 -35 -24 -71 -53 -120 -98
-175 -141 -193 -151 -15 -8 -52 -37 -102 -79 -14 -12 -38 -29 -96 -67 -29 -20
-167 -121 -255 -187 -38 -29 -72 -53 -74 -53 -3 0 -28 -16 -55 -35 -28 -19
-74 -52 -102 -72 -29 -20 -80 -55 -113 -77 -33 -23 -62 -43 -65 -46 -3 -3 -17
-11 -32 -19 -15 -8 -36 -22 -45 -31 -10 -9 -34 -25 -53 -36 -19 -10 -37 -21
-40 -24 -10 -12 -145 -98 -150 -97 -3 1 -24 -13 -47 -30 -22 -18 -46 -33 -52
-33 -6 0 -11 -5 -11 -10 0 -6 -10 -15 -22 -20 -26 -11 -50 -26 -95 -57 -17
-13 -35 -23 -38 -23 -4 0 -24 -12 -44 -28 -41 -30 -48 -35 -146 -92 -104 -60
-109 -64 -118 -77 -4 -7 -12 -13 -16 -13 -9 0 -82 -41 -129 -73 -15 -9 -40
-24 -57 -33 -16 -8 -57 -33 -90 -55 -33 -22 -68 -42 -77 -45 -10 -4 -18 -10
-18 -14 0 -4 -17 -15 -37 -25 -21 -9 -54 -26 -74 -38 -20 -12 -69 -42 -110
-66 -41 -24 -85 -51 -99 -60 -14 -9 -36 -21 -50 -28 -14 -7 -32 -17 -40 -23
-52 -34 -329 -190 -339 -190 -6 0 -11 -4 -11 -9 0 -5 -8 -12 -17 -15 -10 -3
-40 -20 -68 -36 -27 -16 -64 -36 -81 -44 -17 -8 -34 -19 -38 -24 -3 -6 -20
-13 -36 -17 -17 -4 -30 -11 -30 -16 0 -5 -6 -9 -14 -9 -7 0 -19 -7 -26 -14 -6
-8 -28 -20 -48 -26 -20 -6 -50 -18 -67 -25 -44 -20 -69 -28 -79 -26 -4 1 -14
-3 -21 -9 -7 -6 -36 -13 -64 -17 -28 -3 -53 -9 -55 -12 -6 -10 -275 6 -288 16
-7 6 -30 14 -52 17 -21 4 -46 11 -55 16 -9 5 -55 27 -103 50 -48 23 -103 52
-123 66 -20 13 -38 24 -41 24 -3 0 -24 12 -47 28 -23 15 -51 32 -62 39 -11 7
-50 30 -87 52 -36 23 -71 41 -77 41 -6 0 -11 4 -11 10 0 5 -15 16 -32 25 -33
14 -68 35 -78 45 -8 8 -43 29 -70 42 -14 7 -28 16 -31 21 -7 10 -68 46 -91 53
-10 4 -18 10 -18 15 0 5 -5 9 -10 9 -6 0 -33 16 -60 35 -27 19 -53 35 -57 35
-5 0 -26 14 -47 30 -22 17 -43 30 -48 30 -4 0 -31 16 -58 35 -27 19 -52 35
-55 35 -8 0 -100 64 -103 73 -2 4 -8 7 -13 7 -12 0 -93 52 -97 63 -2 4 -8 7
-13 7 -5 0 -32 16 -59 35 -27 19 -52 35 -55 35 -3 0 -27 16 -54 35 -26 19 -52
35 -56 35 -4 0 -24 14 -45 30 -21 17 -43 30 -49 30 -6 0 -11 5 -11 10 0 6 -8
14 -17 17 -10 4 -39 22 -64 40 -26 18 -49 33 -53 33 -6 0 -80 52 -113 80 -7 5
-15 10 -18 10 -4 0 -33 20 -65 45 -32 25 -63 45 -70 45 -6 0 -13 7 -16 15 -4
8 -10 15 -16 15 -8 0 -77 48 -115 80 -7 5 -15 10 -19 10 -9 0 -118 82 -122 93
-2 4 -8 7 -13 7 -10 0 -126 83 -161 114 -10 9 -21 16 -24 16 -4 0 -26 16 -50
35 -23 19 -46 35 -50 35 -4 0 -14 7 -23 15 -34 31 -180 145 -187 145 -4 0 -14
7 -23 15 -9 9 -45 38 -81 65 -36 28 -74 59 -85 70 -12 11 -26 20 -32 20 -6 0
-20 11 -31 25 -11 14 -23 25 -27 25 -7 0 -118 90 -167 135 -15 14 -30 25 -33
25 -6 0 -153 123 -256 214 -25 23 -65 57 -88 76 -24 19 -57 49 -75 65 -18 17
-46 41 -62 54 -118 92 -678 639 -801 781 -21 24 -99 114 -173 200 -75 85 -155
180 -180 210 -24 30 -49 60 -55 65 -10 9 -72 87 -198 249 -26 33 -71 95 -101
137 -30 42 -62 84 -71 93 -10 10 -46 58 -81 107 -35 49 -68 95 -74 102 -6 6
-46 62 -90 122 -76 107 -91 126 -167 228 -40 52 -59 61 -49 21 4 -14 16 -87
27 -162 11 -75 24 -164 29 -197 5 -33 14 -91 19 -130 5 -38 21 -149 35 -245
108 -731 119 -810 115 -815 -15 -15 -619 3 -625 19 -2 6 -8 45 -13 86 -44 358
-74 567 -83 577 -8 10 -77 13 -284 13 -151 0 -274 -2 -274 -4 0 -2 -6 -39 -14
-82 -8 -44 -28 -169 -45 -279 -17 -110 -36 -226 -43 -258 l-11 -58 -291 7
c-160 4 -292 7 -293 8 -1 1 27 166 63 367 36 200 71 400 79 444 15 87 22 127
55 310 12 66 32 183 46 260 14 77 31 178 40 225 8 47 19 110 24 140 5 30 16
93 25 140 23 124 34 189 139 785 53 297 100 563 106 590 18 92 39 209 46 260
3 28 9 54 12 59 5 10 804 -2 814 -12z m2963 2 c223 -38 357 -110 482 -259 83
-100 138 -225 166 -376 26 -136 28 -197 21 -446 l-7 -236 -276 6 c-152 4 -286
7 -298 7 l-22 0 -3 288 c-3 279 -4 288 -27 335 -29 60 -78 93 -156 108 -123
23 -227 -30 -259 -129 -23 -73 -25 -103 -31 -507 -3 -209 -7 -490 -10 -625
-21 -1108 -21 -1108 33 -1184 36 -52 85 -76 169 -83 85 -7 132 7 184 54 67 61
72 91 77 466 l4 327 301 -2 301 -3 -2 -285 c-4 -370 -13 -459 -67 -626 -78
-244 -279 -430 -534 -493 -321 -78 -675 2 -869 197 -113 114 -179 241 -218
422 -22 98 -23 252 -11 1120 13 929 18 1133 28 1215 29 218 106 383 238 515
62 61 173 131 241 153 177 57 371 71 545 41z m12885 -38 c0 -3 -4 -8 -10 -11
-5 -3 -10 -1 -10 4 0 6 5 11 10 11 6 0 10 -2 10 -4z m-11140 -33 c4 -4 4 -213
0 -463 -5 -250 -11 -657 -15 -905 -3 -247 -10 -676 -15 -952 -9 -579 -7 -600
60 -676 36 -42 102 -67 174 -67 152 0 226 82 240 265 3 33 7 299 11 590 3 292
8 609 10 705 2 96 7 465 10 820 3 355 8 654 10 666 4 20 9 21 187 17 101 -2
239 -3 307 -3 l124 0 -7 -422 c-4 -233 -11 -684 -16 -1003 -5 -319 -12 -760
-15 -980 -3 -220 -11 -436 -16 -480 -30 -240 -104 -408 -236 -537 -95 -93
-173 -140 -328 -195 -43 -15 -189 -32 -281 -32 -168 -1 -337 34 -449 93 -193
103 -321 268 -384 496 -44 161 -45 219 -26 1285 2 143 7 499 11 790 3 292 7
595 9 675 2 80 4 187 4 239 l1 94 311 -6 c171 -3 315 -9 319 -14z m2000 -18
c135 -4 247 -8 248 -10 2 -2 -1 -268 -7 -592 -6 -323 -15 -898 -21 -1278 -5
-379 -12 -790 -15 -912 -3 -129 -1 -224 4 -227 5 -4 204 -9 443 -12 238 -3
439 -8 447 -10 12 -4 13 -50 8 -291 -4 -157 -9 -288 -12 -291 -11 -11 -1510
14 -1529 25 -8 5 -6 149 9 1138 6 382 13 865 20 1405 3 217 8 544 11 727 l6
332 67 3 c36 2 68 2 71 2 3 -1 115 -5 250 -9z m2140 -30 c440 -6 638 -13 651
-21 9 -5 2 -561 -7 -575 -2 -4 -132 -5 -289 -2 l-285 4 -1 -108 c0 -59 -2
-162 -4 -228 -5 -184 -14 -795 -21 -1345 -3 -272 -7 -501 -10 -508 -2 -7 -4
-162 -6 -345 -1 -182 -3 -367 -6 -411 l-4 -79 -291 7 c-161 4 -303 10 -316 13
l-24 6 7 356 c3 196 8 545 11 776 3 231 7 555 10 720 17 1056 17 1145 3 1150
-8 3 -136 7 -286 8 l-272 2 0 298 0 299 378 -6 c207 -3 550 -8 762 -11z m1652
-31 c6 -4 7 -57 4 -133 -3 -69 -8 -326 -11 -571 -3 -245 -8 -560 -10 -700 -8
-428 -16 -1084 -17 -1285 -1 -201 6 -240 52 -305 31 -43 97 -71 172 -71 88 -1
138 14 175 53 80 85 80 84 88 913 3 330 8 665 10 745 2 80 7 399 10 710 3 311
8 582 11 603 l6 39 304 -4 304 -3 0 -140 c0 -149 -13 -960 -36 -2350 -6 -379
-18 -489 -65 -630 -56 -165 -134 -275 -266 -375 -132 -100 -276 -147 -472
-157 -443 -21 -750 169 -878 542 -52 152 -61 310 -48 845 4 200 9 479 21 1415
3 253 7 523 9 600 2 77 3 170 4 207 l1 66 311 -4 c172 -3 316 -7 321 -10z
m3593 -2 c-3 -3 -11 0 -18 7 -9 10 -8 11 6 5 10 -3 15 -9 12 -12z m1353 -66
c4 -2 39 -4 77 -4 l70 1 7 -59 c4 -32 15 -104 23 -159 9 -55 31 -210 51 -345
45 -313 68 -471 88 -590 8 -52 22 -151 31 -220 9 -69 21 -143 26 -165 6 -22
10 -52 10 -66 -1 -15 7 -78 18 -140 10 -63 24 -154 31 -204 7 -49 23 -160 37
-245 25 -155 49 -326 58 -410 3 -25 7 -55 10 -68 3 -13 14 -85 25 -160 11 -75
31 -216 45 -312 15 -96 33 -218 40 -270 8 -52 17 -111 20 -130 12 -61 11 -63
-25 -72 -39 -9 -467 -7 -542 2 -27 4 -53 11 -58 16 -5 5 -25 137 -45 294 -48
380 -46 371 -59 375 -6 2 -131 5 -278 7 l-268 3 -5 -25 c-7 -36 -82 -505 -90
-565 -9 -73 -13 -82 -39 -89 -64 -16 -554 -1 -573 18 -2 1 3 36 11 77 39 208
44 235 116 644 22 127 65 370 95 540 56 315 77 433 96 540 6 33 17 92 24 130
8 39 21 115 30 170 9 55 22 132 30 170 8 39 17 90 20 115 4 25 18 104 31 175
27 140 29 154 74 410 17 94 37 205 45 248 8 42 15 91 15 107 0 16 4 39 9 52 5
13 17 66 26 118 l16 95 334 -2 c184 -1 338 -4 343 -7z m917 -276 c3 -5 1 -10
-4 -10 -6 0 -11 5 -11 10 0 6 2 10 4 10 3 0 8 -4 11 -10z m-385 -1654 c0 -3
-4 -8 -10 -11 -5 -3 -10 -1 -10 4 0 6 5 11 10 11 6 0 10 -2 10 -4z m-9089
-1805 c32 -38 77 -121 93 -173 4 -14 24 -4 116 56 61 41 123 77 138 81 15 4
29 10 32 14 3 4 40 20 83 35 64 23 99 29 190 32 91 4 107 2 87 -7 -14 -7 -59
-28 -100 -47 -41 -19 -70 -37 -63 -39 7 -3 35 7 63 21 27 14 67 28 87 32 21 4
43 11 49 16 16 12 27 -36 15 -59 -5 -10 -21 -50 -36 -90 -16 -43 -33 -74 -43
-77 -9 -2 -30 -7 -47 -10 -39 -9 -125 -48 -125 -58 0 -5 -6 -8 -12 -8 -23 0
-157 -108 -243 -195 -103 -104 -189 -154 -265 -155 -93 0 -158 74 -171 195 -6
61 -34 172 -45 184 -2 3 -19 -10 -38 -28 -25 -24 -32 -38 -28 -57 2 -13 8 -27
13 -30 15 -9 9 -58 -10 -81 -27 -33 -166 -116 -236 -141 -33 -12 -101 -26
-152 -31 -131 -14 -193 6 -208 67 -3 14 -15 44 -26 66 -10 22 -19 43 -19 47 0
8 51 6 66 -3 13 -9 82 1 89 13 6 9 -35 19 -87 21 -36 1 -56 18 -22 18 36 0
212 89 289 146 31 23 92 74 137 115 44 41 95 87 112 102 35 33 90 61 156 80
64 19 113 2 161 -52z m-1670 -183 c56 -16 112 -68 192 -177 88 -121 83 -116
100 -103 25 21 129 52 173 52 55 0 83 -11 127 -50 40 -34 133 -201 143 -256 3
-18 15 -43 25 -55 18 -20 27 -22 171 -21 122 0 158 -3 180 -16 15 -9 29 -14
30 -11 2 2 10 18 18 34 9 17 41 47 73 68 48 32 66 39 107 39 56 -1 124 -37
142 -77 11 -23 12 -24 42 -8 45 24 290 29 322 8 42 -27 58 -18 120 63 95 123
105 142 98 194 -9 62 15 109 75 148 28 17 68 33 97 36 27 4 62 16 78 27 17 12
51 22 80 25 43 3 57 0 91 -24 36 -25 54 -30 170 -40 179 -17 219 -28 266 -75
66 -66 75 -158 20 -222 -15 -17 -44 -56 -65 -85 -40 -55 -91 -85 -130 -78 -11
3 -40 7 -62 10 l-41 6 39 -40 c27 -26 49 -40 67 -40 14 0 41 -4 60 -10 27 -7
43 -5 83 12 39 17 60 20 107 15 32 -4 61 -3 65 0 4 4 28 16 54 26 34 14 81 20
174 23 115 4 132 2 168 -16 31 -16 46 -32 61 -68 28 -65 21 -97 -46 -199 -141
-214 -169 -270 -185 -368 -6 -36 -15 -76 -20 -89 -13 -36 -82 -78 -129 -80
-32 0 -37 -3 -28 -14 9 -11 4 -12 -29 -7 -56 11 -78 25 -29 20 22 -2 31 -2 20
1 -27 8 -95 78 -95 98 0 21 -2 21 -58 -14 -27 -16 -65 -31 -85 -32 -25 -2 -36
-7 -32 -15 2 -7 1 -13 -3 -13 -4 0 -18 -3 -31 -7 -17 -4 -22 -3 -17 5 5 8 -1
12 -16 13 -19 1 -18 3 7 9 22 6 25 8 10 10 -11 1 -26 1 -34 0 -9 -1 -12 4 -7
15 5 14 2 16 -14 12 -13 -3 -20 -1 -18 6 1 7 -5 25 -14 41 l-16 30 -16 -32
c-21 -40 -128 -112 -166 -112 -21 0 -28 -4 -24 -14 4 -10 -2 -12 -23 -8 -22 4
-24 6 -9 12 16 5 15 7 -7 17 -21 10 -30 9 -50 -7 -13 -11 -27 -16 -31 -13 -3
3 -6 -1 -6 -10 0 -20 -11 -22 -27 -6 -8 8 -22 9 -40 3 -15 -4 -32 -8 -38 -9
-50 -5 -85 -18 -85 -30 0 -8 -7 -15 -16 -15 -10 0 -14 6 -10 15 7 20 0 19 -24
-5 -24 -24 -50 -26 -50 -4 0 8 4 12 10 9 5 -3 18 -1 27 4 15 9 12 10 -16 11
-45 0 -148 27 -177 47 -22 14 -24 14 -24 -1 0 -9 -7 -16 -15 -16 -17 0 -20 16
-5 25 6 4 -7 24 -30 47 -50 47 -90 129 -90 181 0 20 -4 37 -10 37 -10 0 -12
-7 -31 -113 -9 -54 -18 -75 -44 -102 -18 -19 -30 -36 -28 -38 2 -2 -4 -10 -13
-18 -24 -20 -151 -16 -173 5 -17 18 -13 19 47 7 23 -5 44 -5 47 -1 3 4 -16 10
-41 13 -50 5 -85 32 -105 78 -6 17 -14 28 -18 27 -40 -19 -91 -56 -91 -66 0
-7 -8 -16 -17 -19 -15 -6 -14 -8 7 -14 23 -6 22 -7 -10 -9 -53 -4 -59 -1 -103
38 -69 62 -84 78 -88 91 -4 10 -12 8 -37 -6 -17 -10 -32 -21 -32 -25 0 -5 -7
-8 -15 -8 -8 0 -15 -4 -15 -9 0 -5 -9 -7 -20 -4 -12 3 -20 0 -20 -6 0 -7 4 -9
10 -6 6 3 7 -1 4 -9 -8 -21 10 -20 30 0 9 8 16 10 16 4 0 -6 -7 -13 -15 -16
-8 -4 -12 -10 -9 -15 3 -5 -7 -9 -23 -9 -15 0 -37 -2 -48 -5 -11 -3 -31 4 -45
15 -14 11 -20 20 -15 19 21 -3 88 1 84 5 -2 3 -36 7 -73 10 -68 6 -92 17 -133
65 -10 11 -29 5 -115 -38 -57 -28 -110 -51 -120 -51 -9 0 -18 -4 -20 -9 -3 -8
-68 0 -115 14 -17 6 -25 1 -37 -24 -43 -82 -179 -81 -239 1 -69 94 2 393 143
602 17 24 30 47 30 51 0 4 9 18 20 32 70 89 -71 -45 -260 -247 -52 -56 -168
-196 -235 -283 -40 -52 -59 -68 -97 -82 -126 -45 -238 42 -214 168 3 18 45 93
92 167 47 74 92 146 100 160 8 14 22 37 32 52 100 155 235 404 244 450 4 23 0
28 -33 41 -46 18 -71 63 -72 129 -2 104 96 162 214 126z m-104 -1200 c-3 -8
-6 -5 -6 6 -1 11 2 17 5 13 3 -3 4 -12 1 -19z m1121 -106 c2 -7 -3 -12 -12
-12 -9 0 -16 7 -16 16 0 17 22 14 28 -4z m-439 -75 c-9 -11 -49 1 -49 15 0 5
9 12 20 15 11 3 21 13 21 22 1 9 5 3 8 -14 4 -16 4 -34 0 -38z m-902 37 c-3
-3 -12 -4 -19 -1 -8 3 -5 6 6 6 11 1 17 -2 13 -5z m78 -3 c3 -5 1 -12 -4 -15
-5 -3 -11 1 -15 9 -6 16 9 21 19 6z m730 -11 c3 -5 1 -10 -4 -10 -6 0 -11 5
-11 10 0 6 2 10 4 10 3 0 8 -4 11 -10z m-25 -16 c0 -8 -5 -12 -10 -9 -6 4 -8
11 -5 16 9 14 15 11 15 -7z m2238 -21 c-4 -20 -21 -18 -29 5 -6 16 -4 19 12
15 11 -3 19 -12 17 -20z m272 9 c0 -13 -12 -22 -22 -16 -10 6 -1 24 13 24 5 0
9 -4 9 -8z m-2684 -49 c-11 -11 -17 4 -9 23 7 18 8 18 11 1 2 -10 1 -21 -2
-24z m2104 -2 c0 -12 -20 -25 -27 -18 -7 7 6 27 18 27 5 0 9 -4 9 -9z m-465
-11 c3 -5 4 -10 1 -10 -2 0 -11 -2 -19 -5 -8 -4 -14 0 -14 10 0 17 22 21 32 5z
m-1675 -15 c0 -8 -4 -15 -10 -15 -5 0 -10 7 -10 15 0 8 5 15 10 15 6 0 10 -7
10 -15z"/>
<path d="M10645 14170 c-3 -5 -1 -10 4 -10 6 0 11 5 11 10 0 6 -2 10 -4 10 -3
0 -8 -4 -11 -10z"/>
<path d="M6377 11805 c-4 -16 -16 -93 -27 -170 -11 -77 -27 -180 -35 -230 -8
-49 -26 -166 -40 -260 -14 -93 -32 -210 -40 -260 -59 -370 -88 -575 -82 -581
7 -6 407 -10 416 -4 8 5 6 47 -9 156 -11 82 -24 185 -30 229 -11 95 -44 353
-65 515 -9 63 -24 189 -35 280 -35 296 -45 359 -53 325z"/>
<path d="M8548 12145 c-6 -7 -9 -213 -12 -815 l-1 -165 130 1 c221 1 278 34
336 194 16 46 24 470 10 569 -13 96 -49 156 -112 189 -41 20 -65 24 -195 29
-82 3 -152 2 -156 -2z"/>
<path d="M10909 11918 c0 -106 -2 -218 -4 -248 -2 -30 -7 -352 -11 -715 -3
-363 -8 -680 -10 -705 -3 -32 -9 -546 -9 -720 0 0 63 -3 140 -6 204 -9 286 19
335 117 33 63 40 159 46 617 4 240 8 518 10 617 17 964 15 1038 -26 1122 -43
89 -110 113 -316 113 l-154 0 -1 -192z m338 -1394 c-3 -3 -12 -4 -19 -1 -8 3
-5 6 6 6 11 1 17 -2 13 -5z"/>
<path d="M14676 12103 c-34 -5 -92 -40 -123 -74 -59 -66 -70 -171 -72 -708 -1
-173 -4 -317 -5 -320 -2 -3 -7 -305 -11 -671 -7 -716 -5 -746 43 -814 39 -56
69 -75 143 -90 80 -17 199 -2 199 24 0 4 10 10 23 13 12 4 34 25 49 48 49 75
56 146 62 599 4 228 11 712 16 1074 8 485 8 674 -1 715 -12 62 -44 124 -81
157 -46 43 -142 62 -242 47z"/>
<path d="M1378 8045 c-4 -4 -7 -125 -7 -269 -1 -143 -3 -299 -6 -346 -3 -47
-7 -296 -10 -555 -3 -258 -8 -649 -11 -867 l-7 -398 144 0 c79 0 162 5 183 10
82 18 139 89 155 190 14 86 41 1944 30 2028 -9 66 -35 127 -65 153 -52 46 -84
53 -244 57 -85 2 -158 1 -162 -3z"/>
<path d="M16979 7817 c-5 -9 -8 -105 -14 -490 l-7 -438 132 6 c147 6 192 19
246 73 56 56 66 108 71 387 5 236 4 253 -16 309 -35 101 -83 135 -201 142 -36
2 -98 6 -137 9 -40 3 -74 4 -74 2z"/>
<path d="M3767 7548 c-10 -62 -25 -158 -33 -213 -8 -55 -21 -140 -29 -190 -8
-49 -26 -164 -40 -255 -13 -91 -31 -208 -40 -260 -8 -52 -24 -157 -36 -233
-13 -86 -18 -142 -12 -148 14 -14 399 -7 396 7 -1 6 -23 175 -48 375 -43 340
-68 540 -111 887 -9 78 -20 142 -24 142 -3 0 -14 -51 -23 -112z"/>
<path d="M19371 7420 c-1 -4 -13 -85 -27 -180 -29 -201 -42 -287 -48 -315 -2
-11 -7 -42 -10 -70 -9 -70 -12 -86 -45 -295 -74 -473 -82 -532 -76 -538 9 -10
395 -14 395 -4 0 5 -3 12 -7 16 -5 4 -9 22 -10 39 -1 35 -8 92 -23 212 -6 44
-17 134 -25 200 -58 478 -87 702 -92 715 -4 8 -8 42 -9 75 -3 53 -20 159 -23
145z"/>
<path d="M11845 4614 c-19 -16 -19 -16 5 -9 31 9 50 25 30 25 -8 0 -24 -8 -35
-16z"/>
<path d="M11793 4600 c-30 -12 -29 -18 2 -12 14 2 25 8 25 13 0 5 -1 9 -2 8
-2 0 -13 -4 -25 -9z"/>
<path d="M11645 4556 c-16 -13 -27 -27 -24 -30 3 -3 18 8 34 24 35 36 31 38
-10 6z"/>
<path d="M11008 4534 c-27 -13 -48 -30 -48 -37 -1 -13 -52 -52 -147 -110 -35
-21 -63 -40 -63 -43 0 -3 5 -2 10 1 6 4 25 8 43 10 18 1 52 12 76 24 26 14 50
19 63 15 20 -6 20 -4 14 36 -5 32 -3 41 6 38 7 -3 14 -14 16 -26 4 -26 66 -82
91 -82 25 0 82 20 108 39 27 19 28 38 7 90 -29 74 -91 90 -176 45z"/>
<path d="M11540 4471 c-19 -16 -32 -32 -29 -35 3 -3 23 10 45 29 47 41 33 47
-16 6z"/>
<path d="M11450 4389 c-19 -17 -51 -46 -71 -65 -43 -40 -162 -114 -186 -115
-13 0 -12 -3 6 -10 19 -7 27 -6 37 9 7 11 28 25 46 33 44 18 236 179 213 179
-5 0 -26 -14 -45 -31z"/>
<path d="M10694 4315 c-10 -8 -14 -14 -9 -14 6 0 19 6 29 14 11 8 15 15 10 15
-6 0 -19 -7 -30 -15z"/>
<path d="M10628 4277 c-7 -8 -18 -12 -25 -10 -6 2 -14 0 -17 -5 -3 -6 3 -12
14 -15 13 -3 24 3 35 19 17 26 14 31 -7 11z"/>
<path d="M11000 4286 c0 -2 8 -10 18 -17 15 -13 16 -12 3 4 -13 16 -21 21 -21
13z"/>
<path d="M10535 4240 c-3 -5 -12 -7 -19 -4 -8 3 -17 1 -21 -5 -10 -16 37 -13
59 4 17 13 17 15 4 15 -9 0 -19 -4 -23 -10z"/>
<path d="M11055 4225 c17 -13 39 -24 50 -24 14 0 16 2 5 6 -8 3 -27 14 -42 24
-38 28 -48 23 -13 -6z"/>
<path d="M10423 4222 c-18 -2 -33 -7 -33 -12 0 -7 68 -3 78 5 8 7 -16 10 -45
7z"/>
<path d="M11138 4193 c6 -2 18 -2 25 0 6 3 1 5 -13 5 -14 0 -19 -2 -12 -5z"/>
<path d="M9303 4419 c-18 -6 -23 -16 -23 -42 0 -38 11 -51 55 -62 17 -4 24
-10 18 -12 -21 -8 -15 -23 13 -34 25 -9 26 -12 21 -63 -9 -86 -114 -282 -339
-632 -90 -140 -148 -241 -148 -256 0 -33 29 -58 68 -58 28 0 40 10 99 87 61
79 145 178 243 287 106 119 316 303 330 290 3 -3 -3 -11 -13 -18 -9 -7 -17
-19 -17 -27 0 -8 -14 -20 -30 -27 -17 -8 -43 -30 -58 -50 -28 -38 -80 -92
-122 -128 -33 -27 -131 -134 -200 -218 -30 -37 -74 -89 -97 -115 -31 -35 -39
-50 -32 -61 8 -13 13 -11 27 10 56 80 265 323 363 420 58 57 158 142 219 185
30 22 57 42 60 45 8 10 70 33 75 28 3 -2 -5 -22 -16 -44 -32 -59 -100 -188
-158 -295 -28 -53 -51 -101 -51 -108 0 -6 -9 -30 -19 -54 -55 -123 -77 -266
-47 -312 20 -30 45 -32 74 -5 22 20 22 20 22 1 0 -11 -6 -22 -12 -24 -8 -3 -6
-6 4 -6 19 -1 48 35 48 60 0 9 6 30 13 47 l13 31 48 -31 c40 -26 51 -30 67
-20 10 7 26 12 35 12 26 0 158 66 209 106 54 41 72 38 30 -6 -32 -33 -22 -40
16 -12 13 10 37 26 52 35 l28 18 -7 -26 c-5 -20 1 -32 30 -61 22 -22 42 -34
53 -31 10 3 38 10 63 17 28 7 62 27 88 51 47 43 80 54 42 14 -37 -39 -10 -29
39 15 25 22 48 40 51 40 4 0 10 -25 12 -55 6 -66 28 -95 72 -95 32 1 106 39
150 77 21 19 28 20 38 9 10 -11 18 -10 43 5 16 11 33 19 38 19 4 0 7 -31 7
-69 0 -74 6 -85 55 -95 47 -10 64 10 84 99 18 81 59 185 73 185 5 0 8 6 8 14
0 8 7 16 15 20 8 3 15 12 15 21 0 8 4 15 8 15 4 0 25 24 47 53 21 28 48 60 59
69 20 17 22 17 42 -8 l22 -27 12 23 c9 17 9 25 -3 38 -24 28 -46 82 -40 98 6
16 -23 54 -41 54 -6 0 -22 -6 -36 -13 -18 -10 -33 -11 -53 -4 -77 26 -212 -16
-310 -97 -53 -43 -73 -43 -98 -1 -23 40 -23 48 0 35 16 -8 43 -9 94 -1 4 0 7
8 7 17 0 9 -5 12 -12 8 -8 -5 -9 -2 -3 12 22 54 7 94 -40 108 -35 10 -112 -46
-124 -89 -10 -36 -72 -127 -138 -203 -18 -20 -33 -42 -33 -48 0 -6 -7 -11 -15
-11 -9 0 -14 3 -12 6 21 38 57 125 57 139 -1 14 -4 13 -21 -7 -11 -13 -23 -21
-27 -17 -4 4 1 13 10 20 20 15 31 56 20 74 -12 18 -67 26 -90 13 -26 -14 -249
6 -279 25 -29 18 -104 18 -129 -1 -10 -8 -35 -14 -54 -14 -19 0 -29 3 -23 6 7
2 26 31 43 64 34 67 40 90 10 42 -25 -42 -58 -74 -64 -64 -5 7 1 19 42 96 20
38 24 50 27 99 4 50 -5 73 -43 114 -26 28 -37 32 -79 32 -74 0 -197 -65 -326
-172 -27 -22 -50 -38 -53 -35 -3 3 2 19 11 36 9 18 18 62 21 99 l4 67 -13 -41
c-8 -23 -22 -52 -32 -65 l-17 -24 7 30 c47 199 2 329 -125 358 -14 3 -35 1
-47 -4z m1914 -666 c11 9 23 17 26 17 15 0 6 -58 -11 -73 -17 -15 -19 -15 -34
2 -8 10 -18 31 -22 47 -7 27 -6 28 7 9 14 -19 16 -19 34 -2z m-86 -16 c-13
-13 -26 -3 -16 12 3 6 11 8 17 5 6 -4 6 -10 -1 -17z m19 -34 c0 -13 -3 -13
-15 -3 -8 7 -12 16 -9 21 8 13 24 1 24 -18z m-160 -3 c0 -5 -4 -10 -10 -10 -5
0 -10 5 -10 10 0 6 5 10 10 10 6 0 10 -4 10 -10z m-1180 -20 c0 -5 -2 -10 -4
-10 -3 0 -8 5 -11 10 -3 6 -1 10 4 10 6 0 11 -4 11 -10z m160 -9 c0 -6 -4 -13
-10 -16 -5 -3 -10 1 -10 9 0 9 5 16 10 16 6 0 10 -4 10 -9z m960 1 c0 -13 -12
-22 -22 -16 -10 6 -1 24 13 24 5 0 9 -4 9 -8z m-110 -22 c0 -5 -8 -10 -17 -10
-15 0 -16 2 -3 10 19 12 20 12 20 0z m395 1 c3 -5 1 -12 -5 -16 -5 -3 -10 1
-10 9 0 18 6 21 15 7z m-224 -47 c-22 -24 -30 -42 -26 -55 10 -31 -5 -42 -24
-18 -18 22 -17 23 27 66 55 52 65 56 23 7z m-1061 16 c0 -5 -4 -10 -10 -10 -5
0 -10 5 -10 10 0 6 5 10 10 10 6 0 10 -4 10 -10z m247 -6 c2 -5 -7 -24 -20
-42 -27 -36 -116 -132 -122 -132 -3 0 -25 -16 -51 -35 -44 -34 -74 -44 -74
-26 0 40 123 195 184 232 31 19 77 21 83 3z m610 -48 c-4 -9 -13 -16 -22 -16
-16 0 -19 17 -9 45 6 15 8 15 22 2 8 -9 12 -23 9 -31z m238 14 c3 -5 1 -10 -4
-10 -6 0 -11 5 -11 10 0 6 2 10 4 10 3 0 8 -4 11 -10z m-605 -10 c0 -5 -4 -10
-9 -10 -6 0 -13 5 -16 10 -3 6 1 10 9 10 9 0 16 -4 16 -10z m420 6 c0 -2 -13
-20 -30 -41 -16 -21 -30 -34 -30 -29 0 6 12 24 28 42 26 31 32 36 32 28z
m-550 -37 c0 -6 -4 -7 -10 -4 -5 3 -10 11 -10 16 0 6 5 7 10 4 6 -3 10 -11 10
-16z m290 -9 c0 -5 -4 -10 -10 -10 -5 0 -10 5 -10 10 0 6 5 10 10 10 6 0 10
-4 10 -10z m323 -7 c-13 -8 -23 -24 -23 -34 0 -11 -4 -19 -10 -19 -5 0 -10 10
-10 23 0 16 9 27 28 34 38 15 40 14 15 -4z m157 7 c0 -5 -2 -10 -4 -10 -3 0
-8 5 -11 10 -3 6 -1 10 4 10 6 0 11 -4 11 -10z m-1180 -14 c0 -3 -4 -8 -10
-11 -5 -3 -10 -1 -10 4 0 6 5 11 10 11 6 0 10 -2 10 -4z m515 -17 c-10 -15
-25 -10 -19 6 4 8 10 12 15 9 5 -3 7 -10 4 -15z m103 -21 c-3 -7 -13 -15 -24
-17 -16 -3 -17 -1 -5 13 16 19 34 21 29 4z m273 -6 c-15 -27 -41 -48 -41 -32
0 7 -8 10 -20 7 -13 -3 -20 0 -20 8 0 21 16 26 30 10 17 -20 27 -19 33 5 3 11
10 20 16 20 8 0 9 -6 2 -18z m195 -7 c29 -27 26 -33 -6 -13 -16 11 -22 9 -35
-7 -9 -11 -14 -13 -11 -5 3 8 9 23 12 33 8 22 8 22 40 -8z"/>
<path d="M9522 4205 c0 -16 2 -22 5 -12 2 9 2 23 0 30 -3 6 -5 -1 -5 -18z"/>
<path d="M11653 4168 c2 -7 -3 -21 -11 -31 -11 -12 -12 -21 -5 -28 7 -7 17 -2
31 18 l21 29 -21 13 c-17 10 -19 10 -15 -1z"/>
<path d="M11958 4153 c6 -2 18 -2 25 0 6 3 1 5 -13 5 -14 0 -19 -2 -12 -5z"/>
<path d="M12108 4133 c18 -2 45 -2 60 0 15 2 0 4 -33 4 -33 0 -45 -2 -27 -4z"/>
<path d="M12345 4130 c-4 -6 -17 -15 -29 -20 -14 -6 -16 -9 -5 -9 19 -1 56 25
47 34 -3 3 -9 1 -13 -5z"/>
<path d="M12220 4120 c20 -13 73 -13 65 0 -3 6 -23 10 -43 10 -28 0 -33 -3
-22 -10z"/>
<path d="M12028 4093 c12 -2 30 -2 40 0 9 3 -1 5 -23 4 -22 0 -30 -2 -17 -4z"/>
<path d="M11816 3915 l-39 -35 104 1 c81 1 95 3 64 9 -22 5 -51 6 -64 3 -22
-5 -23 -4 -16 26 8 39 0 39 -49 -4z"/>
<path d="M11617 3843 c-4 -3 -7 -11 -7 -17 0 -6 5 -5 12 2 6 6 9 14 7 17 -3 3
-9 2 -12 -2z"/>
<path d="M12030 3700 l45 -6 -52 -8 c-29 -5 -53 -12 -53 -17 0 -16 78 -10 94
7 26 26 18 34 -31 32 l-48 -1 45 -7z"/>
<path d="M12625 3645 c-25 -20 -67 -58 -92 -86 -48 -51 -133 -167 -133 -182 0
-16 117 84 218 186 56 57 102 107 102 110 0 19 -54 3 -95 -28z"/>
<path d="M12255 3629 c-11 -17 1 -21 15 -4 8 9 8 15 2 15 -6 0 -14 -5 -17 -11z"/>
<path d="M12325 3558 c-65 -52 -139 -123 -177 -170 -31 -40 -26 -51 9 -18 18
16 23 17 33 5 7 -9 8 -15 0 -20 -15 -9 -12 -108 5 -131 14 -18 14 -18 8 4 -3
13 -1 22 6 22 7 0 11 19 11 49 0 64 46 153 123 237 66 72 57 83 -18 22z"/>
<path d="M12050 3581 c0 -6 5 -13 10 -16 6 -3 10 1 10 9 0 9 -4 16 -10 16 -5
0 -10 -4 -10 -9z"/>
<path d="M12516 3338 c-75 -58 -83 -67 -56 -62 37 8 49 -5 50 -51 1 -16 7 -43
15 -60 12 -27 13 -28 14 -7 1 26 8 28 33 5 10 -9 18 -11 18 -5 0 6 -4 14 -10
17 -17 11 -11 122 10 177 11 28 19 52 17 53 -1 1 -42 -29 -91 -67z"/>
<path d="M11256 3297 c3 -10 9 -15 12 -12 3 3 0 11 -7 18 -10 9 -11 8 -5 -6z"/>
<path d="M10760 3280 c-9 -6 -10 -10 -3 -10 6 0 15 5 18 10 8 12 4 12 -15 0z"/>
<path d="M9020 3254 l-25 -14 27 0 c15 0 29 4 33 9 9 16 -9 18 -35 5z"/>
<path d="M12230 3230 c0 -5 5 -10 11 -10 5 0 7 5 4 10 -3 6 -8 10 -11 10 -2 0
-4 -4 -4 -10z"/>
<path d="M11302 3210 c7 -11 17 -20 22 -20 5 0 1 9 -9 20 -10 11 -20 20 -22
20 -2 0 2 -9 9 -20z"/>
<path d="M9898 3213 c7 -3 16 -2 19 1 4 3 -2 6 -13 5 -11 0 -14 -3 -6 -6z"/>
<path d="M12260 3210 c0 -6 7 -10 15 -10 8 0 15 2 15 4 0 2 -7 6 -15 10 -8 3
-15 1 -15 -4z"/>
<path d="M11853 3193 c-13 -2 -23 -8 -23 -13 0 -5 -8 -11 -17 -14 -15 -4 -14
-5 2 -4 11 1 29 -3 39 -7 13 -6 21 -4 24 3 2 7 10 12 19 12 13 0 13 2 -1 15
-8 8 -16 14 -18 14 -2 -1 -13 -4 -25 -6z"/>
<path d="M11948 3187 c-16 -6 -28 -14 -28 -19 0 -12 28 -10 35 3 4 6 17 14 29
19 11 5 14 9 6 8 -8 0 -27 -5 -42 -11z"/>
<path d="M11371 3154 c13 -16 29 -19 29 -5 0 5 -9 11 -21 14 -16 4 -18 3 -8
-9z"/>
<path d="M12638 3163 c-16 -2 -28 -9 -28 -14 0 -15 36 -10 50 6 7 8 11 14 9
14 -2 -1 -16 -4 -31 -6z"/>
<path d="M11758 3153 c7 -3 16 -2 19 1 4 3 -2 6 -13 5 -11 0 -14 -3 -6 -6z"/>
<path d="M11418 3133 c7 -3 16 -2 19 1 4 3 -2 6 -13 5 -11 0 -14 -3 -6 -6z"/>
<path d="M11465 3120 c3 -5 26 -10 51 -10 28 0 43 4 39 10 -3 6 -26 10 -51 10
-28 0 -43 -4 -39 -10z"/>
<path d="M10303 3093 c9 -2 23 -2 30 0 6 3 -1 5 -18 5 -16 0 -22 -2 -12 -5z"/>
<path d="M10995 3050 c-3 -6 1 -7 9 -4 18 7 21 14 7 14 -6 0 -13 -4 -16 -10z"/>
</g>
</svg>
